%TF.GenerationSoftware,KiCad,Pcbnew,7.0.7*%
%TF.CreationDate,2023-08-17T11:34:17-04:00*%
%TF.ProjectId,adin1110-featherwing,6164696e-3131-4313-902d-666561746865,rev?*%
%TF.SameCoordinates,Original*%
%TF.FileFunction,Soldermask,Top*%
%TF.FilePolarity,Negative*%
%FSLAX46Y46*%
G04 Gerber Fmt 4.6, Leading zero omitted, Abs format (unit mm)*
G04 Created by KiCad (PCBNEW 7.0.7) date 2023-08-17 11:34:17*
%MOMM*%
%LPD*%
G01*
G04 APERTURE LIST*
G04 Aperture macros list*
%AMRoundRect*
0 Rectangle with rounded corners*
0 $1 Rounding radius*
0 $2 $3 $4 $5 $6 $7 $8 $9 X,Y pos of 4 corners*
0 Add a 4 corners polygon primitive as box body*
4,1,4,$2,$3,$4,$5,$6,$7,$8,$9,$2,$3,0*
0 Add four circle primitives for the rounded corners*
1,1,$1+$1,$2,$3*
1,1,$1+$1,$4,$5*
1,1,$1+$1,$6,$7*
1,1,$1+$1,$8,$9*
0 Add four rect primitives between the rounded corners*
20,1,$1+$1,$2,$3,$4,$5,0*
20,1,$1+$1,$4,$5,$6,$7,0*
20,1,$1+$1,$6,$7,$8,$9,0*
20,1,$1+$1,$8,$9,$2,$3,0*%
G04 Aperture macros list end*
%ADD10C,1.400000*%
%ADD11RoundRect,0.155000X-0.212500X-0.155000X0.212500X-0.155000X0.212500X0.155000X-0.212500X0.155000X0*%
%ADD12RoundRect,0.237500X0.250000X0.237500X-0.250000X0.237500X-0.250000X-0.237500X0.250000X-0.237500X0*%
%ADD13R,3.000000X3.000000*%
%ADD14C,3.000000*%
%ADD15RoundRect,0.147500X0.147500X0.172500X-0.147500X0.172500X-0.147500X-0.172500X0.147500X-0.172500X0*%
%ADD16RoundRect,0.250000X0.337500X0.475000X-0.337500X0.475000X-0.337500X-0.475000X0.337500X-0.475000X0*%
%ADD17R,1.050000X0.650000*%
%ADD18C,1.300000*%
%ADD19RoundRect,0.147500X0.172500X-0.147500X0.172500X0.147500X-0.172500X0.147500X-0.172500X-0.147500X0*%
%ADD20R,0.600000X0.200000*%
%ADD21RoundRect,0.147500X-0.147500X-0.172500X0.147500X-0.172500X0.147500X0.172500X-0.147500X0.172500X0*%
%ADD22RoundRect,0.147500X-0.172500X0.147500X-0.172500X-0.147500X0.172500X-0.147500X0.172500X0.147500X0*%
%ADD23RoundRect,0.237500X-0.237500X0.250000X-0.237500X-0.250000X0.237500X-0.250000X0.237500X0.250000X0*%
%ADD24R,1.150000X1.000000*%
%ADD25R,1.200000X0.410000*%
%ADD26R,0.420000X0.410000*%
%ADD27R,0.400000X0.410000*%
%ADD28R,1.200000X0.500000*%
%ADD29RoundRect,0.155000X0.155000X-0.212500X0.155000X0.212500X-0.155000X0.212500X-0.155000X-0.212500X0*%
%ADD30RoundRect,0.062500X-0.062500X0.350000X-0.062500X-0.350000X0.062500X-0.350000X0.062500X0.350000X0*%
%ADD31RoundRect,0.062500X-0.350000X0.062500X-0.350000X-0.062500X0.350000X-0.062500X0.350000X0.062500X0*%
%ADD32R,4.600000X4.600000*%
%ADD33RoundRect,0.155000X0.212500X0.155000X-0.212500X0.155000X-0.212500X-0.155000X0.212500X-0.155000X0*%
%ADD34RoundRect,0.250000X-0.412500X-0.650000X0.412500X-0.650000X0.412500X0.650000X-0.412500X0.650000X0*%
%ADD35C,1.700000*%
%ADD36O,1.700000X1.700000*%
G04 APERTURE END LIST*
D10*
%TO.C,TP4*%
X175310800Y-85750400D03*
%TD*%
%TO.C,TP2*%
X175310800Y-89814400D03*
%TD*%
%TO.C,TP3*%
X172720000Y-89814400D03*
%TD*%
D11*
%TO.C,C5*%
X161509900Y-87858600D03*
X162644900Y-87858600D03*
%TD*%
D12*
%TO.C,C9*%
X153287100Y-90551000D03*
X151462100Y-90551000D03*
%TD*%
D13*
%TO.C,J3*%
X136085000Y-95250000D03*
D14*
X136085000Y-90170000D03*
%TD*%
D15*
%TO.C,R17*%
X179148600Y-88239600D03*
X178178600Y-88239600D03*
%TD*%
D16*
%TO.C,C12*%
X147976500Y-94676600D03*
X145901500Y-94676600D03*
%TD*%
D17*
%TO.C,SW2*%
X138828600Y-100922400D03*
X134678600Y-100922400D03*
X138828600Y-98772400D03*
X134703600Y-98772400D03*
%TD*%
D18*
%TO.C,J4*%
X140589000Y-94110000D03*
X140589000Y-91310000D03*
D10*
X133439000Y-88260000D03*
X133439000Y-97160000D03*
X143189000Y-88910000D03*
X143189000Y-96510000D03*
%TD*%
D19*
%TO.C,U3*%
X180340000Y-93195000D03*
X180340000Y-92225000D03*
%TD*%
%TO.C,R3*%
X166141400Y-98148000D03*
X166141400Y-97178000D03*
%TD*%
%TO.C,U5*%
X180340000Y-88115000D03*
X180340000Y-87145000D03*
%TD*%
D15*
%TO.C,R5*%
X157660200Y-90881200D03*
X156690200Y-90881200D03*
%TD*%
%TO.C,R9*%
X179148600Y-93318701D03*
X178178600Y-93318701D03*
%TD*%
D19*
%TO.C,R21*%
X176149000Y-88140400D03*
X176149000Y-87170400D03*
%TD*%
D20*
%TO.C,U2*%
X154693600Y-91243600D03*
X154693600Y-91643600D03*
X154693600Y-92043600D03*
X155643600Y-92043600D03*
X155643600Y-91643600D03*
X155643600Y-91243600D03*
%TD*%
D21*
%TO.C,R11*%
X178178600Y-97179501D03*
X179148600Y-97179501D03*
%TD*%
D12*
%TO.C,C10*%
X153287100Y-92278200D03*
X151462100Y-92278200D03*
%TD*%
D22*
%TO.C,R12*%
X149580600Y-94178400D03*
X149580600Y-95148400D03*
%TD*%
D23*
%TO.C,R2*%
X159105600Y-91238700D03*
X159105600Y-93063700D03*
%TD*%
D21*
%TO.C,R20*%
X167358200Y-97205800D03*
X168328200Y-97205800D03*
%TD*%
D24*
%TO.C,Y1*%
X164603400Y-85101200D03*
X162853400Y-85101200D03*
X162853400Y-86501200D03*
X164603400Y-86501200D03*
%TD*%
D25*
%TO.C,T1*%
X149536600Y-90346400D03*
X149536600Y-90996400D03*
D26*
X149926600Y-93046400D03*
D27*
X149136600Y-93046400D03*
D28*
X145536600Y-90391400D03*
D25*
X145536600Y-92396400D03*
X145536600Y-93046400D03*
%TD*%
D29*
%TO.C,C8*%
X160858200Y-97112900D03*
X160858200Y-95977900D03*
%TD*%
D21*
%TO.C,R7*%
X156690200Y-93116400D03*
X157660200Y-93116400D03*
%TD*%
D15*
%TO.C,R19*%
X159743000Y-97129600D03*
X158773000Y-97129600D03*
%TD*%
D30*
%TO.C,U1*%
X167860400Y-89747100D03*
X167360400Y-89747100D03*
X166860400Y-89747100D03*
X166360400Y-89747100D03*
X165860400Y-89747100D03*
X165360400Y-89747100D03*
X164860400Y-89747100D03*
X164360400Y-89747100D03*
X163860400Y-89747100D03*
X163360400Y-89747100D03*
D31*
X162672900Y-90434600D03*
X162672900Y-90934600D03*
X162672900Y-91434600D03*
X162672900Y-91934600D03*
X162672900Y-92434600D03*
X162672900Y-92934600D03*
X162672900Y-93434600D03*
X162672900Y-93934600D03*
X162672900Y-94434600D03*
X162672900Y-94934600D03*
D30*
X163360400Y-95622100D03*
X163860400Y-95622100D03*
X164360400Y-95622100D03*
X164860400Y-95622100D03*
X165360400Y-95622100D03*
X165860400Y-95622100D03*
X166360400Y-95622100D03*
X166860400Y-95622100D03*
X167360400Y-95622100D03*
X167860400Y-95622100D03*
D31*
X168547900Y-94934600D03*
X168547900Y-94434600D03*
X168547900Y-93934600D03*
X168547900Y-93434600D03*
X168547900Y-92934600D03*
X168547900Y-92434600D03*
X168547900Y-91934600D03*
X168547900Y-91434600D03*
X168547900Y-90934600D03*
X168547900Y-90434600D03*
D32*
X165610400Y-92684600D03*
%TD*%
D29*
%TO.C,C2*%
X170053000Y-94107000D03*
X170053000Y-92972000D03*
%TD*%
%TO.C,C1*%
X161264600Y-94725300D03*
X161264600Y-93590300D03*
%TD*%
D11*
%TO.C,C4*%
X163897500Y-87858600D03*
X165032500Y-87858600D03*
%TD*%
D33*
%TO.C,C11*%
X146490500Y-89154000D03*
X145355500Y-89154000D03*
%TD*%
D19*
%TO.C,U4*%
X180340000Y-98275000D03*
X180340000Y-97305000D03*
%TD*%
D34*
%TO.C,C13*%
X145986100Y-97155000D03*
X149111100Y-97155000D03*
%TD*%
D29*
%TO.C,C6*%
X164871400Y-98205100D03*
X164871400Y-97070100D03*
%TD*%
D35*
%TO.C,J2*%
X148590000Y-82550000D03*
D36*
X151130000Y-82550000D03*
X153670000Y-82550000D03*
X156210000Y-82550000D03*
X158750000Y-82550000D03*
X161290000Y-82550000D03*
X163830000Y-82550000D03*
X166370000Y-82550000D03*
X168910000Y-82550000D03*
X171450000Y-82550000D03*
X173990000Y-82550000D03*
X176530000Y-82550000D03*
%TD*%
D23*
%TO.C,R1*%
X160832800Y-89917900D03*
X160832800Y-91742900D03*
%TD*%
D21*
%TO.C,R8*%
X178178600Y-92099501D03*
X179148600Y-92099501D03*
%TD*%
D29*
%TO.C,C3*%
X163601400Y-98205100D03*
X163601400Y-97070100D03*
%TD*%
D15*
%TO.C,R6*%
X157660200Y-91998800D03*
X156690200Y-91998800D03*
%TD*%
D35*
%TO.C,J1*%
X176530000Y-102870000D03*
D36*
X173990000Y-102870000D03*
X171450000Y-102870000D03*
X168910000Y-102870000D03*
X166370000Y-102870000D03*
X163830000Y-102870000D03*
X161290000Y-102870000D03*
X158750000Y-102870000D03*
X156210000Y-102870000D03*
X153670000Y-102870000D03*
X151130000Y-102870000D03*
X148590000Y-102870000D03*
X146050000Y-102870000D03*
X143510000Y-102870000D03*
X140970000Y-102870000D03*
X138430000Y-102870000D03*
%TD*%
D15*
%TO.C,R14*%
X179148600Y-98449501D03*
X178178600Y-98449501D03*
%TD*%
D33*
%TO.C,C14*%
X146490500Y-88011000D03*
X145355500Y-88011000D03*
%TD*%
D29*
%TO.C,C7*%
X161925000Y-97112900D03*
X161925000Y-95977900D03*
%TD*%
D21*
%TO.C,R4*%
X156690200Y-89814400D03*
X157660200Y-89814400D03*
%TD*%
%TO.C,R15*%
X178178600Y-87071200D03*
X179148600Y-87071200D03*
%TD*%
M02*
