%TF.GenerationSoftware,KiCad,Pcbnew,7.0.7*%
%TF.CreationDate,2023-08-17T11:34:17-04:00*%
%TF.ProjectId,adin1110-featherwing,6164696e-3131-4313-902d-666561746865,rev?*%
%TF.SameCoordinates,Original*%
%TF.FileFunction,Legend,Bot*%
%TF.FilePolarity,Positive*%
%FSLAX46Y46*%
G04 Gerber Fmt 4.6, Leading zero omitted, Abs format (unit mm)*
G04 Created by KiCad (PCBNEW 7.0.7) date 2023-08-17 11:34:17*
%MOMM*%
%LPD*%
G01*
G04 APERTURE LIST*
%ADD10C,0.152400*%
%ADD11C,0.150000*%
%ADD12C,0.120000*%
G04 APERTURE END LIST*
D10*
X140932632Y-83687735D02*
X140932632Y-83010402D01*
X140932632Y-83203926D02*
X140884251Y-83107164D01*
X140884251Y-83107164D02*
X140835870Y-83058783D01*
X140835870Y-83058783D02*
X140739108Y-83010402D01*
X140739108Y-83010402D02*
X140642346Y-83010402D01*
X139916632Y-83639355D02*
X140013394Y-83687735D01*
X140013394Y-83687735D02*
X140206918Y-83687735D01*
X140206918Y-83687735D02*
X140303680Y-83639355D01*
X140303680Y-83639355D02*
X140352061Y-83542593D01*
X140352061Y-83542593D02*
X140352061Y-83155545D01*
X140352061Y-83155545D02*
X140303680Y-83058783D01*
X140303680Y-83058783D02*
X140206918Y-83010402D01*
X140206918Y-83010402D02*
X140013394Y-83010402D01*
X140013394Y-83010402D02*
X139916632Y-83058783D01*
X139916632Y-83058783D02*
X139868251Y-83155545D01*
X139868251Y-83155545D02*
X139868251Y-83252307D01*
X139868251Y-83252307D02*
X140352061Y-83349069D01*
X139529585Y-83010402D02*
X139287680Y-83687735D01*
X139287680Y-83687735D02*
X139045775Y-83010402D01*
X137933014Y-83397450D02*
X137449204Y-83397450D01*
X138029776Y-83687735D02*
X137691109Y-82671735D01*
X137691109Y-82671735D02*
X137352442Y-83687735D01*
D11*
X179214304Y-85205219D02*
X178642876Y-85205219D01*
X178928590Y-86205219D02*
X178928590Y-85205219D01*
X178309542Y-86205219D02*
X178309542Y-85205219D01*
X178309542Y-85205219D02*
X177928590Y-85205219D01*
X177928590Y-85205219D02*
X177833352Y-85252838D01*
X177833352Y-85252838D02*
X177785733Y-85300457D01*
X177785733Y-85300457D02*
X177738114Y-85395695D01*
X177738114Y-85395695D02*
X177738114Y-85538552D01*
X177738114Y-85538552D02*
X177785733Y-85633790D01*
X177785733Y-85633790D02*
X177833352Y-85681409D01*
X177833352Y-85681409D02*
X177928590Y-85729028D01*
X177928590Y-85729028D02*
X178309542Y-85729028D01*
X176880971Y-85538552D02*
X176880971Y-86205219D01*
X177119066Y-85157600D02*
X177357161Y-85871885D01*
X177357161Y-85871885D02*
X176738114Y-85871885D01*
X179214304Y-89269219D02*
X178642876Y-89269219D01*
X178928590Y-90269219D02*
X178928590Y-89269219D01*
X178309542Y-90269219D02*
X178309542Y-89269219D01*
X178309542Y-89269219D02*
X177928590Y-89269219D01*
X177928590Y-89269219D02*
X177833352Y-89316838D01*
X177833352Y-89316838D02*
X177785733Y-89364457D01*
X177785733Y-89364457D02*
X177738114Y-89459695D01*
X177738114Y-89459695D02*
X177738114Y-89602552D01*
X177738114Y-89602552D02*
X177785733Y-89697790D01*
X177785733Y-89697790D02*
X177833352Y-89745409D01*
X177833352Y-89745409D02*
X177928590Y-89793028D01*
X177928590Y-89793028D02*
X178309542Y-89793028D01*
X177357161Y-89364457D02*
X177309542Y-89316838D01*
X177309542Y-89316838D02*
X177214304Y-89269219D01*
X177214304Y-89269219D02*
X176976209Y-89269219D01*
X176976209Y-89269219D02*
X176880971Y-89316838D01*
X176880971Y-89316838D02*
X176833352Y-89364457D01*
X176833352Y-89364457D02*
X176785733Y-89459695D01*
X176785733Y-89459695D02*
X176785733Y-89554933D01*
X176785733Y-89554933D02*
X176833352Y-89697790D01*
X176833352Y-89697790D02*
X177404780Y-90269219D01*
X177404780Y-90269219D02*
X176785733Y-90269219D01*
X171441904Y-89269219D02*
X170870476Y-89269219D01*
X171156190Y-90269219D02*
X171156190Y-89269219D01*
X170537142Y-90269219D02*
X170537142Y-89269219D01*
X170537142Y-89269219D02*
X170156190Y-89269219D01*
X170156190Y-89269219D02*
X170060952Y-89316838D01*
X170060952Y-89316838D02*
X170013333Y-89364457D01*
X170013333Y-89364457D02*
X169965714Y-89459695D01*
X169965714Y-89459695D02*
X169965714Y-89602552D01*
X169965714Y-89602552D02*
X170013333Y-89697790D01*
X170013333Y-89697790D02*
X170060952Y-89745409D01*
X170060952Y-89745409D02*
X170156190Y-89793028D01*
X170156190Y-89793028D02*
X170537142Y-89793028D01*
X169632380Y-89269219D02*
X169013333Y-89269219D01*
X169013333Y-89269219D02*
X169346666Y-89650171D01*
X169346666Y-89650171D02*
X169203809Y-89650171D01*
X169203809Y-89650171D02*
X169108571Y-89697790D01*
X169108571Y-89697790D02*
X169060952Y-89745409D01*
X169060952Y-89745409D02*
X169013333Y-89840647D01*
X169013333Y-89840647D02*
X169013333Y-90078742D01*
X169013333Y-90078742D02*
X169060952Y-90173980D01*
X169060952Y-90173980D02*
X169108571Y-90221600D01*
X169108571Y-90221600D02*
X169203809Y-90269219D01*
X169203809Y-90269219D02*
X169489523Y-90269219D01*
X169489523Y-90269219D02*
X169584761Y-90221600D01*
X169584761Y-90221600D02*
X169632380Y-90173980D01*
X159357219Y-95386638D02*
X158357219Y-95386638D01*
X159357219Y-95862828D02*
X158357219Y-95862828D01*
X158357219Y-95862828D02*
X159357219Y-96434256D01*
X159357219Y-96434256D02*
X158357219Y-96434256D01*
X158357219Y-96767590D02*
X158357219Y-97339018D01*
X159357219Y-97053304D02*
X158357219Y-97053304D01*
X158079600Y-95248543D02*
X158079600Y-97334257D01*
X173108523Y-92660000D02*
X172965666Y-92707619D01*
X172965666Y-92707619D02*
X172727571Y-92707619D01*
X172727571Y-92707619D02*
X172632333Y-92660000D01*
X172632333Y-92660000D02*
X172584714Y-92612380D01*
X172584714Y-92612380D02*
X172537095Y-92517142D01*
X172537095Y-92517142D02*
X172537095Y-92421904D01*
X172537095Y-92421904D02*
X172584714Y-92326666D01*
X172584714Y-92326666D02*
X172632333Y-92279047D01*
X172632333Y-92279047D02*
X172727571Y-92231428D01*
X172727571Y-92231428D02*
X172918047Y-92183809D01*
X172918047Y-92183809D02*
X173013285Y-92136190D01*
X173013285Y-92136190D02*
X173060904Y-92088571D01*
X173060904Y-92088571D02*
X173108523Y-91993333D01*
X173108523Y-91993333D02*
X173108523Y-91898095D01*
X173108523Y-91898095D02*
X173060904Y-91802857D01*
X173060904Y-91802857D02*
X173013285Y-91755238D01*
X173013285Y-91755238D02*
X172918047Y-91707619D01*
X172918047Y-91707619D02*
X172679952Y-91707619D01*
X172679952Y-91707619D02*
X172537095Y-91755238D01*
X172108523Y-92707619D02*
X172108523Y-91707619D01*
X172108523Y-91707619D02*
X171727571Y-91707619D01*
X171727571Y-91707619D02*
X171632333Y-91755238D01*
X171632333Y-91755238D02*
X171584714Y-91802857D01*
X171584714Y-91802857D02*
X171537095Y-91898095D01*
X171537095Y-91898095D02*
X171537095Y-92040952D01*
X171537095Y-92040952D02*
X171584714Y-92136190D01*
X171584714Y-92136190D02*
X171632333Y-92183809D01*
X171632333Y-92183809D02*
X171727571Y-92231428D01*
X171727571Y-92231428D02*
X172108523Y-92231428D01*
X171108523Y-92707619D02*
X171108523Y-91707619D01*
X170870429Y-92802857D02*
X170108524Y-92802857D01*
X169299000Y-92612380D02*
X169346619Y-92660000D01*
X169346619Y-92660000D02*
X169489476Y-92707619D01*
X169489476Y-92707619D02*
X169584714Y-92707619D01*
X169584714Y-92707619D02*
X169727571Y-92660000D01*
X169727571Y-92660000D02*
X169822809Y-92564761D01*
X169822809Y-92564761D02*
X169870428Y-92469523D01*
X169870428Y-92469523D02*
X169918047Y-92279047D01*
X169918047Y-92279047D02*
X169918047Y-92136190D01*
X169918047Y-92136190D02*
X169870428Y-91945714D01*
X169870428Y-91945714D02*
X169822809Y-91850476D01*
X169822809Y-91850476D02*
X169727571Y-91755238D01*
X169727571Y-91755238D02*
X169584714Y-91707619D01*
X169584714Y-91707619D02*
X169489476Y-91707619D01*
X169489476Y-91707619D02*
X169346619Y-91755238D01*
X169346619Y-91755238D02*
X169299000Y-91802857D01*
X168537095Y-92183809D02*
X168870428Y-92183809D01*
X168870428Y-92707619D02*
X168870428Y-91707619D01*
X168870428Y-91707619D02*
X168394238Y-91707619D01*
X167489476Y-91755238D02*
X167584714Y-91707619D01*
X167584714Y-91707619D02*
X167727571Y-91707619D01*
X167727571Y-91707619D02*
X167870428Y-91755238D01*
X167870428Y-91755238D02*
X167965666Y-91850476D01*
X167965666Y-91850476D02*
X168013285Y-91945714D01*
X168013285Y-91945714D02*
X168060904Y-92136190D01*
X168060904Y-92136190D02*
X168060904Y-92279047D01*
X168060904Y-92279047D02*
X168013285Y-92469523D01*
X168013285Y-92469523D02*
X167965666Y-92564761D01*
X167965666Y-92564761D02*
X167870428Y-92660000D01*
X167870428Y-92660000D02*
X167727571Y-92707619D01*
X167727571Y-92707619D02*
X167632333Y-92707619D01*
X167632333Y-92707619D02*
X167489476Y-92660000D01*
X167489476Y-92660000D02*
X167441857Y-92612380D01*
X167441857Y-92612380D02*
X167441857Y-92279047D01*
X167441857Y-92279047D02*
X167632333Y-92279047D01*
X166489476Y-92707619D02*
X167060904Y-92707619D01*
X166775190Y-92707619D02*
X166775190Y-91707619D01*
X166775190Y-91707619D02*
X166870428Y-91850476D01*
X166870428Y-91850476D02*
X166965666Y-91945714D01*
X166965666Y-91945714D02*
X167060904Y-91993333D01*
X172932409Y-99438619D02*
X172932409Y-98438619D01*
X172932409Y-98438619D02*
X172599076Y-99152904D01*
X172599076Y-99152904D02*
X172265743Y-98438619D01*
X172265743Y-98438619D02*
X172265743Y-99438619D01*
X171837171Y-99391000D02*
X171694314Y-99438619D01*
X171694314Y-99438619D02*
X171456219Y-99438619D01*
X171456219Y-99438619D02*
X171360981Y-99391000D01*
X171360981Y-99391000D02*
X171313362Y-99343380D01*
X171313362Y-99343380D02*
X171265743Y-99248142D01*
X171265743Y-99248142D02*
X171265743Y-99152904D01*
X171265743Y-99152904D02*
X171313362Y-99057666D01*
X171313362Y-99057666D02*
X171360981Y-99010047D01*
X171360981Y-99010047D02*
X171456219Y-98962428D01*
X171456219Y-98962428D02*
X171646695Y-98914809D01*
X171646695Y-98914809D02*
X171741933Y-98867190D01*
X171741933Y-98867190D02*
X171789552Y-98819571D01*
X171789552Y-98819571D02*
X171837171Y-98724333D01*
X171837171Y-98724333D02*
X171837171Y-98629095D01*
X171837171Y-98629095D02*
X171789552Y-98533857D01*
X171789552Y-98533857D02*
X171741933Y-98486238D01*
X171741933Y-98486238D02*
X171646695Y-98438619D01*
X171646695Y-98438619D02*
X171408600Y-98438619D01*
X171408600Y-98438619D02*
X171265743Y-98486238D01*
X171075267Y-99533857D02*
X170313362Y-99533857D01*
X170122885Y-99391000D02*
X169980028Y-99438619D01*
X169980028Y-99438619D02*
X169741933Y-99438619D01*
X169741933Y-99438619D02*
X169646695Y-99391000D01*
X169646695Y-99391000D02*
X169599076Y-99343380D01*
X169599076Y-99343380D02*
X169551457Y-99248142D01*
X169551457Y-99248142D02*
X169551457Y-99152904D01*
X169551457Y-99152904D02*
X169599076Y-99057666D01*
X169599076Y-99057666D02*
X169646695Y-99010047D01*
X169646695Y-99010047D02*
X169741933Y-98962428D01*
X169741933Y-98962428D02*
X169932409Y-98914809D01*
X169932409Y-98914809D02*
X170027647Y-98867190D01*
X170027647Y-98867190D02*
X170075266Y-98819571D01*
X170075266Y-98819571D02*
X170122885Y-98724333D01*
X170122885Y-98724333D02*
X170122885Y-98629095D01*
X170122885Y-98629095D02*
X170075266Y-98533857D01*
X170075266Y-98533857D02*
X170027647Y-98486238D01*
X170027647Y-98486238D02*
X169932409Y-98438619D01*
X169932409Y-98438619D02*
X169694314Y-98438619D01*
X169694314Y-98438619D02*
X169551457Y-98486238D01*
X169122885Y-98914809D02*
X168789552Y-98914809D01*
X168646695Y-99438619D02*
X169122885Y-99438619D01*
X169122885Y-99438619D02*
X169122885Y-98438619D01*
X169122885Y-98438619D02*
X168646695Y-98438619D01*
X167741933Y-99438619D02*
X168218123Y-99438619D01*
X168218123Y-99438619D02*
X168218123Y-98438619D01*
X173070505Y-98161000D02*
X167746695Y-98161000D01*
X173013285Y-94971400D02*
X172870428Y-95019019D01*
X172870428Y-95019019D02*
X172632333Y-95019019D01*
X172632333Y-95019019D02*
X172537095Y-94971400D01*
X172537095Y-94971400D02*
X172489476Y-94923780D01*
X172489476Y-94923780D02*
X172441857Y-94828542D01*
X172441857Y-94828542D02*
X172441857Y-94733304D01*
X172441857Y-94733304D02*
X172489476Y-94638066D01*
X172489476Y-94638066D02*
X172537095Y-94590447D01*
X172537095Y-94590447D02*
X172632333Y-94542828D01*
X172632333Y-94542828D02*
X172822809Y-94495209D01*
X172822809Y-94495209D02*
X172918047Y-94447590D01*
X172918047Y-94447590D02*
X172965666Y-94399971D01*
X172965666Y-94399971D02*
X173013285Y-94304733D01*
X173013285Y-94304733D02*
X173013285Y-94209495D01*
X173013285Y-94209495D02*
X172965666Y-94114257D01*
X172965666Y-94114257D02*
X172918047Y-94066638D01*
X172918047Y-94066638D02*
X172822809Y-94019019D01*
X172822809Y-94019019D02*
X172584714Y-94019019D01*
X172584714Y-94019019D02*
X172441857Y-94066638D01*
X172108523Y-94019019D02*
X171870428Y-95019019D01*
X171870428Y-95019019D02*
X171679952Y-94304733D01*
X171679952Y-94304733D02*
X171489476Y-95019019D01*
X171489476Y-95019019D02*
X171251381Y-94019019D01*
X170870428Y-95019019D02*
X170870428Y-94019019D01*
X170870428Y-94019019D02*
X170489476Y-94019019D01*
X170489476Y-94019019D02*
X170394238Y-94066638D01*
X170394238Y-94066638D02*
X170346619Y-94114257D01*
X170346619Y-94114257D02*
X170299000Y-94209495D01*
X170299000Y-94209495D02*
X170299000Y-94352352D01*
X170299000Y-94352352D02*
X170346619Y-94447590D01*
X170346619Y-94447590D02*
X170394238Y-94495209D01*
X170394238Y-94495209D02*
X170489476Y-94542828D01*
X170489476Y-94542828D02*
X170870428Y-94542828D01*
X169870428Y-95019019D02*
X169870428Y-94019019D01*
X169870428Y-94019019D02*
X169632333Y-94019019D01*
X169632333Y-94019019D02*
X169489476Y-94066638D01*
X169489476Y-94066638D02*
X169394238Y-94161876D01*
X169394238Y-94161876D02*
X169346619Y-94257114D01*
X169346619Y-94257114D02*
X169299000Y-94447590D01*
X169299000Y-94447590D02*
X169299000Y-94590447D01*
X169299000Y-94590447D02*
X169346619Y-94780923D01*
X169346619Y-94780923D02*
X169394238Y-94876161D01*
X169394238Y-94876161D02*
X169489476Y-94971400D01*
X169489476Y-94971400D02*
X169632333Y-95019019D01*
X169632333Y-95019019D02*
X169870428Y-95019019D01*
X169108524Y-95114257D02*
X168346619Y-95114257D01*
X168108523Y-94495209D02*
X167775190Y-94495209D01*
X167632333Y-95019019D02*
X168108523Y-95019019D01*
X168108523Y-95019019D02*
X168108523Y-94019019D01*
X168108523Y-94019019D02*
X167632333Y-94019019D01*
X167203761Y-95019019D02*
X167203761Y-94019019D01*
X167203761Y-94019019D02*
X166632333Y-95019019D01*
X166632333Y-95019019D02*
X166632333Y-94019019D01*
X173103762Y-93741400D02*
X166494238Y-93741400D01*
X174038419Y-85507580D02*
X173562228Y-85174247D01*
X174038419Y-84936152D02*
X173038419Y-84936152D01*
X173038419Y-84936152D02*
X173038419Y-85317104D01*
X173038419Y-85317104D02*
X173086038Y-85412342D01*
X173086038Y-85412342D02*
X173133657Y-85459961D01*
X173133657Y-85459961D02*
X173228895Y-85507580D01*
X173228895Y-85507580D02*
X173371752Y-85507580D01*
X173371752Y-85507580D02*
X173466990Y-85459961D01*
X173466990Y-85459961D02*
X173514609Y-85412342D01*
X173514609Y-85412342D02*
X173562228Y-85317104D01*
X173562228Y-85317104D02*
X173562228Y-84936152D01*
X173990800Y-85888533D02*
X174038419Y-86031390D01*
X174038419Y-86031390D02*
X174038419Y-86269485D01*
X174038419Y-86269485D02*
X173990800Y-86364723D01*
X173990800Y-86364723D02*
X173943180Y-86412342D01*
X173943180Y-86412342D02*
X173847942Y-86459961D01*
X173847942Y-86459961D02*
X173752704Y-86459961D01*
X173752704Y-86459961D02*
X173657466Y-86412342D01*
X173657466Y-86412342D02*
X173609847Y-86364723D01*
X173609847Y-86364723D02*
X173562228Y-86269485D01*
X173562228Y-86269485D02*
X173514609Y-86079009D01*
X173514609Y-86079009D02*
X173466990Y-85983771D01*
X173466990Y-85983771D02*
X173419371Y-85936152D01*
X173419371Y-85936152D02*
X173324133Y-85888533D01*
X173324133Y-85888533D02*
X173228895Y-85888533D01*
X173228895Y-85888533D02*
X173133657Y-85936152D01*
X173133657Y-85936152D02*
X173086038Y-85983771D01*
X173086038Y-85983771D02*
X173038419Y-86079009D01*
X173038419Y-86079009D02*
X173038419Y-86317104D01*
X173038419Y-86317104D02*
X173086038Y-86459961D01*
X173038419Y-86745676D02*
X173038419Y-87317104D01*
X174038419Y-87031390D02*
X173038419Y-87031390D01*
X172760800Y-84798057D02*
X172760800Y-87312343D01*
X173167228Y-96254219D02*
X172595800Y-96254219D01*
X172881514Y-97254219D02*
X172881514Y-96254219D01*
X172357704Y-96254219D02*
X171691038Y-97254219D01*
X171691038Y-96254219D02*
X172357704Y-97254219D01*
X171357704Y-96349457D02*
X171310085Y-96301838D01*
X171310085Y-96301838D02*
X171214847Y-96254219D01*
X171214847Y-96254219D02*
X170976752Y-96254219D01*
X170976752Y-96254219D02*
X170881514Y-96301838D01*
X170881514Y-96301838D02*
X170833895Y-96349457D01*
X170833895Y-96349457D02*
X170786276Y-96444695D01*
X170786276Y-96444695D02*
X170786276Y-96539933D01*
X170786276Y-96539933D02*
X170833895Y-96682790D01*
X170833895Y-96682790D02*
X171405323Y-97254219D01*
X171405323Y-97254219D02*
X170786276Y-97254219D01*
X170357704Y-97254219D02*
X170357704Y-96254219D01*
X170357704Y-96254219D02*
X169976752Y-96254219D01*
X169976752Y-96254219D02*
X169881514Y-96301838D01*
X169881514Y-96301838D02*
X169833895Y-96349457D01*
X169833895Y-96349457D02*
X169786276Y-96444695D01*
X169786276Y-96444695D02*
X169786276Y-96587552D01*
X169786276Y-96587552D02*
X169833895Y-96682790D01*
X169833895Y-96682790D02*
X169881514Y-96730409D01*
X169881514Y-96730409D02*
X169976752Y-96778028D01*
X169976752Y-96778028D02*
X170357704Y-96778028D01*
X168929133Y-96587552D02*
X168929133Y-97254219D01*
X169167228Y-96206600D02*
X169405323Y-96920885D01*
X169405323Y-96920885D02*
X168786276Y-96920885D01*
X168643419Y-97349457D02*
X167881514Y-97349457D01*
X167643418Y-96730409D02*
X167310085Y-96730409D01*
X167167228Y-97254219D02*
X167643418Y-97254219D01*
X167643418Y-97254219D02*
X167643418Y-96254219D01*
X167643418Y-96254219D02*
X167167228Y-96254219D01*
X166738656Y-97254219D02*
X166738656Y-96254219D01*
X166738656Y-96254219D02*
X166167228Y-97254219D01*
X166167228Y-97254219D02*
X166167228Y-96254219D01*
X173162467Y-95976600D02*
X166029133Y-95976600D01*
X161751180Y-96023133D02*
X161798800Y-95975514D01*
X161798800Y-95975514D02*
X161846419Y-95832657D01*
X161846419Y-95832657D02*
X161846419Y-95737419D01*
X161846419Y-95737419D02*
X161798800Y-95594562D01*
X161798800Y-95594562D02*
X161703561Y-95499324D01*
X161703561Y-95499324D02*
X161608323Y-95451705D01*
X161608323Y-95451705D02*
X161417847Y-95404086D01*
X161417847Y-95404086D02*
X161274990Y-95404086D01*
X161274990Y-95404086D02*
X161084514Y-95451705D01*
X161084514Y-95451705D02*
X160989276Y-95499324D01*
X160989276Y-95499324D02*
X160894038Y-95594562D01*
X160894038Y-95594562D02*
X160846419Y-95737419D01*
X160846419Y-95737419D02*
X160846419Y-95832657D01*
X160846419Y-95832657D02*
X160894038Y-95975514D01*
X160894038Y-95975514D02*
X160941657Y-96023133D01*
X161798800Y-96404086D02*
X161846419Y-96546943D01*
X161846419Y-96546943D02*
X161846419Y-96785038D01*
X161846419Y-96785038D02*
X161798800Y-96880276D01*
X161798800Y-96880276D02*
X161751180Y-96927895D01*
X161751180Y-96927895D02*
X161655942Y-96975514D01*
X161655942Y-96975514D02*
X161560704Y-96975514D01*
X161560704Y-96975514D02*
X161465466Y-96927895D01*
X161465466Y-96927895D02*
X161417847Y-96880276D01*
X161417847Y-96880276D02*
X161370228Y-96785038D01*
X161370228Y-96785038D02*
X161322609Y-96594562D01*
X161322609Y-96594562D02*
X161274990Y-96499324D01*
X161274990Y-96499324D02*
X161227371Y-96451705D01*
X161227371Y-96451705D02*
X161132133Y-96404086D01*
X161132133Y-96404086D02*
X161036895Y-96404086D01*
X161036895Y-96404086D02*
X160941657Y-96451705D01*
X160941657Y-96451705D02*
X160894038Y-96499324D01*
X160894038Y-96499324D02*
X160846419Y-96594562D01*
X160846419Y-96594562D02*
X160846419Y-96832657D01*
X160846419Y-96832657D02*
X160894038Y-96975514D01*
X160568800Y-95313610D02*
X160568800Y-97065991D01*
D12*
%TO.C,TP4*%
X174410800Y-84850400D02*
X174410800Y-84800400D01*
X174410800Y-84800400D02*
X176260800Y-84800400D01*
X174410800Y-86700400D02*
X174410800Y-84850400D01*
X176260800Y-86700400D02*
X174410800Y-86700400D01*
X176260800Y-84800400D02*
X176260800Y-86700400D01*
%TO.C,TP2*%
X174410800Y-88914400D02*
X174410800Y-88864400D01*
X174410800Y-88864400D02*
X176260800Y-88864400D01*
X174410800Y-90764400D02*
X174410800Y-88914400D01*
X176260800Y-90764400D02*
X174410800Y-90764400D01*
X176260800Y-88864400D02*
X176260800Y-90764400D01*
%TO.C,TP3*%
X171820000Y-88914400D02*
X171820000Y-88864400D01*
X171820000Y-88864400D02*
X173670000Y-88864400D01*
X171820000Y-90764400D02*
X171820000Y-88914400D01*
X173670000Y-90764400D02*
X171820000Y-90764400D01*
X173670000Y-88864400D02*
X173670000Y-90764400D01*
%TO.C,JP1*%
X159750000Y-98066400D02*
X157750000Y-98066400D01*
X157750000Y-98066400D02*
X157750000Y-100866400D01*
X159750000Y-100866400D02*
X159750000Y-98066400D01*
X157750000Y-100866400D02*
X159750000Y-100866400D01*
%TO.C,JP5*%
X173529800Y-91227400D02*
X173529800Y-93227400D01*
X173529800Y-93227400D02*
X176329800Y-93227400D01*
X176329800Y-91227400D02*
X173529800Y-91227400D01*
X176329800Y-93227400D02*
X176329800Y-91227400D01*
%TO.C,JP7*%
X173529800Y-97882198D02*
X173529800Y-99882198D01*
X173529800Y-99882198D02*
X176329800Y-99882198D01*
X176329800Y-97882198D02*
X173529800Y-97882198D01*
X176329800Y-99882198D02*
X176329800Y-97882198D01*
%TO.C,JP6*%
X173529800Y-93445666D02*
X173529800Y-95445666D01*
X173529800Y-95445666D02*
X176329800Y-95445666D01*
X176329800Y-93445666D02*
X173529800Y-93445666D01*
X176329800Y-95445666D02*
X176329800Y-93445666D01*
%TO.C,JP2*%
X170450000Y-87404400D02*
X172450000Y-87404400D01*
X172450000Y-87404400D02*
X172450000Y-84604400D01*
X170450000Y-84604400D02*
X170450000Y-87404400D01*
X172450000Y-84604400D02*
X170450000Y-84604400D01*
%TO.C,JP4*%
X173529800Y-95663932D02*
X173529800Y-97663932D01*
X173529800Y-97663932D02*
X176329800Y-97663932D01*
X176329800Y-95663932D02*
X173529800Y-95663932D01*
X176329800Y-97663932D02*
X176329800Y-95663932D01*
%TO.C,JP3*%
X162290000Y-98066400D02*
X160290000Y-98066400D01*
X160290000Y-98066400D02*
X160290000Y-100866400D01*
X162290000Y-100866400D02*
X162290000Y-98066400D01*
X160290000Y-100866400D02*
X162290000Y-100866400D01*
%TD*%
M02*
