%TF.GenerationSoftware,KiCad,Pcbnew,7.0.7*%
%TF.CreationDate,2023-08-17T11:34:17-04:00*%
%TF.ProjectId,adin1110-featherwing,6164696e-3131-4313-902d-666561746865,rev?*%
%TF.SameCoordinates,Original*%
%TF.FileFunction,Legend,Top*%
%TF.FilePolarity,Positive*%
%FSLAX46Y46*%
G04 Gerber Fmt 4.6, Leading zero omitted, Abs format (unit mm)*
G04 Created by KiCad (PCBNEW 7.0.7) date 2023-08-17 11:34:17*
%MOMM*%
%LPD*%
G01*
G04 APERTURE LIST*
%ADD10C,0.304800*%
%ADD11C,0.150000*%
%ADD12C,0.100000*%
%ADD13C,0.152400*%
%ADD14C,0.120000*%
G04 APERTURE END LIST*
D10*
X140670387Y-100022412D02*
X141275149Y-100022412D01*
X140495006Y-100457841D02*
X141108840Y-98933841D01*
X141108840Y-98933841D02*
X141341673Y-100457841D01*
X141765006Y-100457841D02*
X141955506Y-98933841D01*
X141955506Y-98933841D02*
X142257887Y-98933841D01*
X142257887Y-98933841D02*
X142430244Y-99006412D01*
X142430244Y-99006412D02*
X142533054Y-99151555D01*
X142533054Y-99151555D02*
X142575387Y-99296698D01*
X142575387Y-99296698D02*
X142599577Y-99586984D01*
X142599577Y-99586984D02*
X142572363Y-99804698D01*
X142572363Y-99804698D02*
X142475601Y-100094984D01*
X142475601Y-100094984D02*
X142396982Y-100240127D01*
X142396982Y-100240127D02*
X142257887Y-100385270D01*
X142257887Y-100385270D02*
X142067387Y-100457841D01*
X142067387Y-100457841D02*
X141765006Y-100457841D01*
X143035006Y-100457841D02*
X143225506Y-98933841D01*
X143639768Y-100457841D02*
X143830268Y-98933841D01*
X143830268Y-98933841D02*
X144365482Y-100457841D01*
X144365482Y-100457841D02*
X144555982Y-98933841D01*
X145635482Y-100457841D02*
X144909768Y-100457841D01*
X145272625Y-100457841D02*
X145463125Y-98933841D01*
X145463125Y-98933841D02*
X145314958Y-99151555D01*
X145314958Y-99151555D02*
X145175863Y-99296698D01*
X145175863Y-99296698D02*
X145045839Y-99369270D01*
X146845006Y-100457841D02*
X146119292Y-100457841D01*
X146482149Y-100457841D02*
X146672649Y-98933841D01*
X146672649Y-98933841D02*
X146524482Y-99151555D01*
X146524482Y-99151555D02*
X146385387Y-99296698D01*
X146385387Y-99296698D02*
X146255363Y-99369270D01*
X148054530Y-100457841D02*
X147328816Y-100457841D01*
X147691673Y-100457841D02*
X147882173Y-98933841D01*
X147882173Y-98933841D02*
X147734006Y-99151555D01*
X147734006Y-99151555D02*
X147594911Y-99296698D01*
X147594911Y-99296698D02*
X147464887Y-99369270D01*
X149031221Y-98933841D02*
X149152173Y-98933841D01*
X149152173Y-98933841D02*
X149264054Y-99006412D01*
X149264054Y-99006412D02*
X149315459Y-99078984D01*
X149315459Y-99078984D02*
X149357792Y-99224127D01*
X149357792Y-99224127D02*
X149381983Y-99514412D01*
X149381983Y-99514412D02*
X149336626Y-99877270D01*
X149336626Y-99877270D02*
X149239864Y-100167555D01*
X149239864Y-100167555D02*
X149161245Y-100312698D01*
X149161245Y-100312698D02*
X149091697Y-100385270D01*
X149091697Y-100385270D02*
X148961673Y-100457841D01*
X148961673Y-100457841D02*
X148840721Y-100457841D01*
X148840721Y-100457841D02*
X148728840Y-100385270D01*
X148728840Y-100385270D02*
X148677435Y-100312698D01*
X148677435Y-100312698D02*
X148635102Y-100167555D01*
X148635102Y-100167555D02*
X148610911Y-99877270D01*
X148610911Y-99877270D02*
X148656268Y-99514412D01*
X148656268Y-99514412D02*
X148753030Y-99224127D01*
X148753030Y-99224127D02*
X148831649Y-99078984D01*
X148831649Y-99078984D02*
X148901197Y-99006412D01*
X148901197Y-99006412D02*
X149031221Y-98933841D01*
X151299078Y-99659555D02*
X150875745Y-99659555D01*
X150775959Y-100457841D02*
X150966459Y-98933841D01*
X150966459Y-98933841D02*
X151571221Y-98933841D01*
X152357411Y-100385270D02*
X152227387Y-100457841D01*
X152227387Y-100457841D02*
X151985482Y-100457841D01*
X151985482Y-100457841D02*
X151873601Y-100385270D01*
X151873601Y-100385270D02*
X151831268Y-100240127D01*
X151831268Y-100240127D02*
X151903840Y-99659555D01*
X151903840Y-99659555D02*
X151982459Y-99514412D01*
X151982459Y-99514412D02*
X152112482Y-99441841D01*
X152112482Y-99441841D02*
X152354387Y-99441841D01*
X152354387Y-99441841D02*
X152466268Y-99514412D01*
X152466268Y-99514412D02*
X152508601Y-99659555D01*
X152508601Y-99659555D02*
X152490459Y-99804698D01*
X152490459Y-99804698D02*
X151867554Y-99949841D01*
X153497387Y-100457841D02*
X153597172Y-99659555D01*
X153597172Y-99659555D02*
X153554839Y-99514412D01*
X153554839Y-99514412D02*
X153442958Y-99441841D01*
X153442958Y-99441841D02*
X153201053Y-99441841D01*
X153201053Y-99441841D02*
X153071030Y-99514412D01*
X153506458Y-100385270D02*
X153376434Y-100457841D01*
X153376434Y-100457841D02*
X153074053Y-100457841D01*
X153074053Y-100457841D02*
X152962172Y-100385270D01*
X152962172Y-100385270D02*
X152919839Y-100240127D01*
X152919839Y-100240127D02*
X152937982Y-100094984D01*
X152937982Y-100094984D02*
X153016601Y-99949841D01*
X153016601Y-99949841D02*
X153146625Y-99877270D01*
X153146625Y-99877270D02*
X153449006Y-99877270D01*
X153449006Y-99877270D02*
X153579030Y-99804698D01*
X154047720Y-99441841D02*
X154531530Y-99441841D01*
X154292649Y-98933841D02*
X154129363Y-100240127D01*
X154129363Y-100240127D02*
X154171697Y-100385270D01*
X154171697Y-100385270D02*
X154283578Y-100457841D01*
X154283578Y-100457841D02*
X154404530Y-100457841D01*
X154827863Y-100457841D02*
X155018363Y-98933841D01*
X155372149Y-100457841D02*
X155471934Y-99659555D01*
X155471934Y-99659555D02*
X155429601Y-99514412D01*
X155429601Y-99514412D02*
X155317720Y-99441841D01*
X155317720Y-99441841D02*
X155136292Y-99441841D01*
X155136292Y-99441841D02*
X155006268Y-99514412D01*
X155006268Y-99514412D02*
X154936720Y-99586984D01*
X156469792Y-100385270D02*
X156339768Y-100457841D01*
X156339768Y-100457841D02*
X156097863Y-100457841D01*
X156097863Y-100457841D02*
X155985982Y-100385270D01*
X155985982Y-100385270D02*
X155943649Y-100240127D01*
X155943649Y-100240127D02*
X156016221Y-99659555D01*
X156016221Y-99659555D02*
X156094840Y-99514412D01*
X156094840Y-99514412D02*
X156224863Y-99441841D01*
X156224863Y-99441841D02*
X156466768Y-99441841D01*
X156466768Y-99441841D02*
X156578649Y-99514412D01*
X156578649Y-99514412D02*
X156620982Y-99659555D01*
X156620982Y-99659555D02*
X156602840Y-99804698D01*
X156602840Y-99804698D02*
X155979935Y-99949841D01*
X157065482Y-100457841D02*
X157192482Y-99441841D01*
X157156196Y-99732127D02*
X157234815Y-99586984D01*
X157234815Y-99586984D02*
X157304363Y-99514412D01*
X157304363Y-99514412D02*
X157434387Y-99441841D01*
X157434387Y-99441841D02*
X157555339Y-99441841D01*
X157921220Y-98933841D02*
X158033101Y-100457841D01*
X158033101Y-100457841D02*
X158411077Y-99369270D01*
X158411077Y-99369270D02*
X158516910Y-100457841D01*
X158516910Y-100457841D02*
X159009791Y-98933841D01*
X159303101Y-100457841D02*
X159430101Y-99441841D01*
X159493601Y-98933841D02*
X159424053Y-99006412D01*
X159424053Y-99006412D02*
X159475458Y-99078984D01*
X159475458Y-99078984D02*
X159545006Y-99006412D01*
X159545006Y-99006412D02*
X159493601Y-98933841D01*
X159493601Y-98933841D02*
X159475458Y-99078984D01*
X160034863Y-99441841D02*
X159907863Y-100457841D01*
X160016720Y-99586984D02*
X160086268Y-99514412D01*
X160086268Y-99514412D02*
X160216292Y-99441841D01*
X160216292Y-99441841D02*
X160397720Y-99441841D01*
X160397720Y-99441841D02*
X160509601Y-99514412D01*
X160509601Y-99514412D02*
X160551934Y-99659555D01*
X160551934Y-99659555D02*
X160452149Y-100457841D01*
X161728197Y-99441841D02*
X161573982Y-100675555D01*
X161573982Y-100675555D02*
X161495363Y-100820698D01*
X161495363Y-100820698D02*
X161425816Y-100893270D01*
X161425816Y-100893270D02*
X161295792Y-100965841D01*
X161295792Y-100965841D02*
X161114363Y-100965841D01*
X161114363Y-100965841D02*
X161002482Y-100893270D01*
X161610268Y-100385270D02*
X161480244Y-100457841D01*
X161480244Y-100457841D02*
X161238340Y-100457841D01*
X161238340Y-100457841D02*
X161126459Y-100385270D01*
X161126459Y-100385270D02*
X161075054Y-100312698D01*
X161075054Y-100312698D02*
X161032721Y-100167555D01*
X161032721Y-100167555D02*
X161087149Y-99732127D01*
X161087149Y-99732127D02*
X161165768Y-99586984D01*
X161165768Y-99586984D02*
X161235316Y-99514412D01*
X161235316Y-99514412D02*
X161365340Y-99441841D01*
X161365340Y-99441841D02*
X161607244Y-99441841D01*
X161607244Y-99441841D02*
X161719125Y-99514412D01*
D11*
X132768180Y-99350580D02*
X133244371Y-99017247D01*
X132768180Y-98779152D02*
X133768180Y-98779152D01*
X133768180Y-98779152D02*
X133768180Y-99160104D01*
X133768180Y-99160104D02*
X133720561Y-99255342D01*
X133720561Y-99255342D02*
X133672942Y-99302961D01*
X133672942Y-99302961D02*
X133577704Y-99350580D01*
X133577704Y-99350580D02*
X133434847Y-99350580D01*
X133434847Y-99350580D02*
X133339609Y-99302961D01*
X133339609Y-99302961D02*
X133291990Y-99255342D01*
X133291990Y-99255342D02*
X133244371Y-99160104D01*
X133244371Y-99160104D02*
X133244371Y-98779152D01*
X132815800Y-99731533D02*
X132768180Y-99874390D01*
X132768180Y-99874390D02*
X132768180Y-100112485D01*
X132768180Y-100112485D02*
X132815800Y-100207723D01*
X132815800Y-100207723D02*
X132863419Y-100255342D01*
X132863419Y-100255342D02*
X132958657Y-100302961D01*
X132958657Y-100302961D02*
X133053895Y-100302961D01*
X133053895Y-100302961D02*
X133149133Y-100255342D01*
X133149133Y-100255342D02*
X133196752Y-100207723D01*
X133196752Y-100207723D02*
X133244371Y-100112485D01*
X133244371Y-100112485D02*
X133291990Y-99922009D01*
X133291990Y-99922009D02*
X133339609Y-99826771D01*
X133339609Y-99826771D02*
X133387228Y-99779152D01*
X133387228Y-99779152D02*
X133482466Y-99731533D01*
X133482466Y-99731533D02*
X133577704Y-99731533D01*
X133577704Y-99731533D02*
X133672942Y-99779152D01*
X133672942Y-99779152D02*
X133720561Y-99826771D01*
X133720561Y-99826771D02*
X133768180Y-99922009D01*
X133768180Y-99922009D02*
X133768180Y-100160104D01*
X133768180Y-100160104D02*
X133720561Y-100302961D01*
X133768180Y-100588676D02*
X133768180Y-101160104D01*
X132768180Y-100874390D02*
X133768180Y-100874390D01*
X182218819Y-93834999D02*
X182218819Y-94311190D01*
X182218819Y-94311190D02*
X181218819Y-94186190D01*
X181695009Y-93436189D02*
X181695009Y-93102856D01*
X182218819Y-93025475D02*
X182218819Y-93501666D01*
X182218819Y-93501666D02*
X181218819Y-93376666D01*
X181218819Y-93376666D02*
X181218819Y-92900475D01*
X182218819Y-92596904D02*
X181218819Y-92471904D01*
X181218819Y-92471904D02*
X181218819Y-92233808D01*
X181218819Y-92233808D02*
X181266438Y-92096904D01*
X181266438Y-92096904D02*
X181361676Y-92013570D01*
X181361676Y-92013570D02*
X181456914Y-91977856D01*
X181456914Y-91977856D02*
X181647390Y-91954047D01*
X181647390Y-91954047D02*
X181790247Y-91971904D01*
X181790247Y-91971904D02*
X181980723Y-92043332D01*
X181980723Y-92043332D02*
X182075961Y-92102856D01*
X182075961Y-92102856D02*
X182171200Y-92209999D01*
X182171200Y-92209999D02*
X182218819Y-92358808D01*
X182218819Y-92358808D02*
X182218819Y-92596904D01*
X181218819Y-91281427D02*
X181218819Y-91186189D01*
X181218819Y-91186189D02*
X181266438Y-91096904D01*
X181266438Y-91096904D02*
X181314057Y-91055237D01*
X181314057Y-91055237D02*
X181409295Y-91019523D01*
X181409295Y-91019523D02*
X181599771Y-90995713D01*
X181599771Y-90995713D02*
X181837866Y-91025475D01*
X181837866Y-91025475D02*
X182028342Y-91096904D01*
X182028342Y-91096904D02*
X182123580Y-91156427D01*
X182123580Y-91156427D02*
X182171200Y-91209999D01*
X182171200Y-91209999D02*
X182218819Y-91311189D01*
X182218819Y-91311189D02*
X182218819Y-91406427D01*
X182218819Y-91406427D02*
X182171200Y-91495713D01*
X182171200Y-91495713D02*
X182123580Y-91537380D01*
X182123580Y-91537380D02*
X182028342Y-91573094D01*
X182028342Y-91573094D02*
X181837866Y-91596904D01*
X181837866Y-91596904D02*
X181599771Y-91567142D01*
X181599771Y-91567142D02*
X181409295Y-91495713D01*
X181409295Y-91495713D02*
X181314057Y-91436189D01*
X181314057Y-91436189D02*
X181266438Y-91382618D01*
X181266438Y-91382618D02*
X181218819Y-91281427D01*
X182218819Y-88588332D02*
X182218819Y-89064523D01*
X182218819Y-89064523D02*
X181218819Y-88939523D01*
X182218819Y-88254999D02*
X181218819Y-88129999D01*
X182218819Y-87778809D02*
X181218819Y-87653809D01*
X181218819Y-87653809D02*
X182218819Y-87207380D01*
X182218819Y-87207380D02*
X181218819Y-87082380D01*
X182218819Y-86731190D02*
X181218819Y-86606190D01*
X182218819Y-86159761D02*
X181647390Y-86516904D01*
X181218819Y-86034761D02*
X181790247Y-86677618D01*
D12*
X168605295Y-88179619D02*
X168605295Y-88989142D01*
X168605295Y-88989142D02*
X168652914Y-89084380D01*
X168652914Y-89084380D02*
X168700533Y-89132000D01*
X168700533Y-89132000D02*
X168795771Y-89179619D01*
X168795771Y-89179619D02*
X168986247Y-89179619D01*
X168986247Y-89179619D02*
X169081485Y-89132000D01*
X169081485Y-89132000D02*
X169129104Y-89084380D01*
X169129104Y-89084380D02*
X169176723Y-88989142D01*
X169176723Y-88989142D02*
X169176723Y-88179619D01*
X170176723Y-89179619D02*
X169605295Y-89179619D01*
X169891009Y-89179619D02*
X169891009Y-88179619D01*
X169891009Y-88179619D02*
X169795771Y-88322476D01*
X169795771Y-88322476D02*
X169700533Y-88417714D01*
X169700533Y-88417714D02*
X169605295Y-88465333D01*
D13*
X182177493Y-98817801D02*
X182177493Y-99253229D01*
X182177493Y-99253229D02*
X181263093Y-99138929D01*
X181698522Y-98453129D02*
X181698522Y-98148329D01*
X182177493Y-98077572D02*
X182177493Y-98513000D01*
X182177493Y-98513000D02*
X181263093Y-98398700D01*
X181263093Y-98398700D02*
X181263093Y-97963272D01*
X182177493Y-97685686D02*
X181263093Y-97571386D01*
X181263093Y-97571386D02*
X181263093Y-97353672D01*
X181263093Y-97353672D02*
X181306636Y-97228486D01*
X181306636Y-97228486D02*
X181393722Y-97152286D01*
X181393722Y-97152286D02*
X181480808Y-97119629D01*
X181480808Y-97119629D02*
X181654979Y-97097858D01*
X181654979Y-97097858D02*
X181785608Y-97114186D01*
X181785608Y-97114186D02*
X181959779Y-97179500D01*
X181959779Y-97179500D02*
X182046865Y-97233929D01*
X182046865Y-97233929D02*
X182133951Y-97331900D01*
X182133951Y-97331900D02*
X182177493Y-97467972D01*
X182177493Y-97467972D02*
X182177493Y-97685686D01*
X182177493Y-96292315D02*
X182177493Y-96814829D01*
X182177493Y-96553572D02*
X181263093Y-96439272D01*
X181263093Y-96439272D02*
X181393722Y-96542686D01*
X181393722Y-96542686D02*
X181480808Y-96640658D01*
X181480808Y-96640658D02*
X181524351Y-96733186D01*
%TO.C,L1*%
G36*
X154678158Y-86709556D02*
G01*
X153662158Y-86709556D01*
X153662158Y-84592889D01*
X154678158Y-84592889D01*
X154678158Y-86709556D01*
G37*
G36*
X141216158Y-86201556D02*
G01*
X142570825Y-86201556D01*
X142570825Y-86709556D01*
X140454158Y-86709556D01*
X140454158Y-84592889D01*
X141216158Y-84592889D01*
X141216158Y-86201556D01*
G37*
G36*
X143417492Y-86201556D02*
G01*
X144772158Y-86201556D01*
X144772158Y-86709556D01*
X142655492Y-86709556D01*
X142655492Y-84592889D01*
X143417492Y-84592889D01*
X143417492Y-86201556D01*
G37*
G36*
X136830019Y-84995056D02*
G01*
X136853328Y-85238700D01*
X136904547Y-85360955D01*
X137017268Y-85409669D01*
X137130992Y-85423754D01*
X137406158Y-85450285D01*
X137406158Y-84592889D01*
X138168158Y-84592889D01*
X138168158Y-86709556D01*
X137406158Y-86709556D01*
X137406158Y-85862889D01*
X136813492Y-85862889D01*
X136813492Y-86709556D01*
X136051492Y-86709556D01*
X136051492Y-84592889D01*
X136804214Y-84592889D01*
X136830019Y-84995056D01*
G37*
G36*
X146973492Y-84846889D02*
G01*
X146960118Y-85009756D01*
X146887645Y-85082157D01*
X146707547Y-85100488D01*
X146634825Y-85100889D01*
X146296158Y-85100889D01*
X146296158Y-86709556D01*
X145534158Y-86709556D01*
X145534158Y-85100889D01*
X145195492Y-85100889D01*
X144978336Y-85090859D01*
X144881801Y-85036504D01*
X144857359Y-84901431D01*
X144856825Y-84846889D01*
X144856825Y-84592889D01*
X146973492Y-84592889D01*
X146973492Y-84846889D01*
G37*
G36*
X151926319Y-84625338D02*
G01*
X152127469Y-84739938D01*
X152380469Y-84962569D01*
X152410417Y-84991873D01*
X152815492Y-85390857D01*
X152815492Y-84592889D01*
X153577492Y-84592889D01*
X153577492Y-86709556D01*
X152815492Y-86709556D01*
X152815492Y-86345165D01*
X152792559Y-86088666D01*
X152699441Y-85891939D01*
X152519158Y-85693556D01*
X152222825Y-85406338D01*
X152222825Y-86709556D01*
X151460825Y-86709556D01*
X151460825Y-84592889D01*
X151733083Y-84592889D01*
X151926319Y-84625338D01*
G37*
G36*
X139014825Y-86201556D02*
G01*
X139607492Y-86201556D01*
X139607492Y-84592889D01*
X140369492Y-84592889D01*
X140369492Y-85423715D01*
X140366995Y-85808051D01*
X140353473Y-86063389D01*
X140319878Y-86230052D01*
X140257162Y-86348365D01*
X140156278Y-86458652D01*
X140132025Y-86482049D01*
X139980796Y-86607147D01*
X139820158Y-86675976D01*
X139593035Y-86704666D01*
X139326921Y-86709556D01*
X139008202Y-86701710D01*
X138800345Y-86666739D01*
X138645173Y-86587492D01*
X138506054Y-86467556D01*
X138389031Y-86348194D01*
X138315073Y-86233716D01*
X138274308Y-86082870D01*
X138256867Y-85854401D01*
X138252877Y-85507057D01*
X138252825Y-85409223D01*
X138252825Y-84592889D01*
X139014825Y-84592889D01*
X139014825Y-86201556D01*
G37*
G36*
X156879492Y-85100889D02*
G01*
X155524825Y-85100889D01*
X155524825Y-86201556D01*
X156879492Y-86201556D01*
X156879492Y-86709556D01*
X156074388Y-86709556D01*
X155695891Y-86706710D01*
X155444229Y-86691696D01*
X155276921Y-86654801D01*
X155151487Y-86586311D01*
X155025445Y-86476512D01*
X155016054Y-86467556D01*
X154879969Y-86322553D01*
X154803832Y-86178812D01*
X154770502Y-85980777D01*
X154762843Y-85672888D01*
X154762825Y-85646689D01*
X154770651Y-85323294D01*
X154804536Y-85112893D01*
X154880091Y-84959471D01*
X154990332Y-84830355D01*
X155103656Y-84721189D01*
X155217337Y-84651911D01*
X155371701Y-84613475D01*
X155607070Y-84596832D01*
X155963769Y-84592935D01*
X156048665Y-84592889D01*
X156879492Y-84592889D01*
X156879492Y-85100889D01*
G37*
G36*
X150634714Y-84600182D02*
G01*
X150847222Y-84632050D01*
X151000111Y-84703478D01*
X151138692Y-84820396D01*
X151264434Y-84956594D01*
X151335875Y-85097741D01*
X151368078Y-85296532D01*
X151376104Y-85605667D01*
X151376158Y-85651223D01*
X151369967Y-85976621D01*
X151341352Y-86185543D01*
X151275251Y-86330688D01*
X151156602Y-86464753D01*
X151138692Y-86482049D01*
X150987462Y-86607147D01*
X150826825Y-86675976D01*
X150599702Y-86704666D01*
X150333588Y-86709556D01*
X150014869Y-86701710D01*
X149807012Y-86666739D01*
X149651840Y-86587492D01*
X149512721Y-86467556D01*
X149376636Y-86322553D01*
X149312545Y-86201556D01*
X150021492Y-86201556D01*
X150614158Y-86201556D01*
X150614158Y-85100889D01*
X150021492Y-85100889D01*
X150021492Y-86201556D01*
X149312545Y-86201556D01*
X149300498Y-86178812D01*
X149267169Y-85980777D01*
X149259509Y-85672888D01*
X149259492Y-85646689D01*
X149267317Y-85323294D01*
X149301202Y-85112893D01*
X149376758Y-84959471D01*
X149486999Y-84830355D01*
X149624620Y-84703642D01*
X149767564Y-84632147D01*
X149969334Y-84600394D01*
X150283430Y-84592905D01*
X150307866Y-84592889D01*
X150634714Y-84600182D01*
G37*
G36*
X135966825Y-85100889D02*
G01*
X135283283Y-85100889D01*
X134943808Y-85104791D01*
X134741901Y-85121270D01*
X134645888Y-85157487D01*
X134624090Y-85220604D01*
X134627878Y-85249056D01*
X134690606Y-85345815D01*
X134856792Y-85400757D01*
X135078586Y-85423527D01*
X135408297Y-85475006D01*
X135648573Y-85598497D01*
X135733992Y-85672201D01*
X135920960Y-85915546D01*
X135944841Y-86149181D01*
X135805800Y-86398000D01*
X135739318Y-86472090D01*
X135625994Y-86581256D01*
X135512312Y-86650534D01*
X135357949Y-86688970D01*
X135122580Y-86705613D01*
X134765881Y-86709510D01*
X134680984Y-86709556D01*
X133850158Y-86709556D01*
X133850158Y-86201556D01*
X134527492Y-86201556D01*
X134864968Y-86198021D01*
X135067226Y-86181738D01*
X135168327Y-86144192D01*
X135202332Y-86076869D01*
X135204825Y-86032223D01*
X135183404Y-85932162D01*
X135091792Y-85881352D01*
X134888963Y-85864000D01*
X134764958Y-85862889D01*
X134467818Y-85844835D01*
X134263402Y-85774030D01*
X134087624Y-85635382D01*
X133896583Y-85383319D01*
X133872611Y-85142060D01*
X134015710Y-84894815D01*
X134087624Y-84820396D01*
X134208456Y-84714889D01*
X134331489Y-84648276D01*
X134498080Y-84611665D01*
X134749586Y-84596167D01*
X135127364Y-84592892D01*
X135145958Y-84592889D01*
X135966825Y-84592889D01*
X135966825Y-85100889D01*
G37*
G36*
X159080825Y-85100889D02*
G01*
X158397283Y-85100889D01*
X158057808Y-85104791D01*
X157855901Y-85121270D01*
X157759888Y-85157487D01*
X157738090Y-85220604D01*
X157741878Y-85249056D01*
X157804606Y-85345815D01*
X157970792Y-85400757D01*
X158192586Y-85423527D01*
X158522297Y-85475006D01*
X158762573Y-85598497D01*
X158847992Y-85672201D01*
X159034960Y-85915546D01*
X159058841Y-86149181D01*
X158919800Y-86398000D01*
X158853318Y-86472090D01*
X158739994Y-86581256D01*
X158626312Y-86650534D01*
X158471949Y-86688970D01*
X158236580Y-86705613D01*
X157879881Y-86709510D01*
X157794984Y-86709556D01*
X156964158Y-86709556D01*
X156964158Y-86201556D01*
X157641492Y-86201556D01*
X157978968Y-86198021D01*
X158181226Y-86181738D01*
X158282327Y-86144192D01*
X158316332Y-86076869D01*
X158318825Y-86032223D01*
X158297404Y-85932162D01*
X158205792Y-85881352D01*
X158002963Y-85864000D01*
X157878958Y-85862889D01*
X157581818Y-85844835D01*
X157377402Y-85774030D01*
X157201624Y-85635382D01*
X157045848Y-85441720D01*
X156966664Y-85256377D01*
X156964158Y-85227889D01*
X157022763Y-85053672D01*
X157167206Y-84855270D01*
X157201624Y-84820396D01*
X157322456Y-84714889D01*
X157445489Y-84648276D01*
X157612080Y-84611665D01*
X157863586Y-84596167D01*
X158241364Y-84592892D01*
X158259958Y-84592889D01*
X159080825Y-84592889D01*
X159080825Y-85100889D01*
G37*
G36*
X148273320Y-84595386D02*
G01*
X148528658Y-84608908D01*
X148695321Y-84642503D01*
X148813634Y-84705219D01*
X148923921Y-84806103D01*
X148947318Y-84830355D01*
X149121668Y-85107456D01*
X149175161Y-85414894D01*
X149102716Y-85696740D01*
X149034703Y-85792722D01*
X148941052Y-85921739D01*
X148970786Y-86026896D01*
X149034703Y-86102389D01*
X149143500Y-86306657D01*
X149174825Y-86483389D01*
X149150195Y-86644208D01*
X149041304Y-86703411D01*
X148920054Y-86709556D01*
X148626988Y-86626757D01*
X148399497Y-86455556D01*
X148199503Y-86297287D01*
X148020602Y-86208509D01*
X147976934Y-86201556D01*
X147860551Y-86247949D01*
X147820928Y-86412170D01*
X147820158Y-86455556D01*
X147809114Y-86611744D01*
X147745344Y-86685720D01*
X147582894Y-86708120D01*
X147439158Y-86709556D01*
X147058158Y-86709556D01*
X147058158Y-85397223D01*
X147820158Y-85397223D01*
X147833265Y-85595834D01*
X147907211Y-85677287D01*
X148093936Y-85693519D01*
X148116492Y-85693556D01*
X148315103Y-85680449D01*
X148396556Y-85606503D01*
X148412788Y-85419778D01*
X148412825Y-85397223D01*
X148399718Y-85198611D01*
X148325772Y-85117158D01*
X148139047Y-85100926D01*
X148116492Y-85100889D01*
X147917880Y-85113996D01*
X147836427Y-85187942D01*
X147820195Y-85374667D01*
X147820158Y-85397223D01*
X147058158Y-85397223D01*
X147058158Y-84592889D01*
X147888984Y-84592889D01*
X148273320Y-84595386D01*
G37*
D14*
%TO.C,C5*%
X161961565Y-87498600D02*
X162193235Y-87498600D01*
X161961565Y-88218600D02*
X162193235Y-88218600D01*
%TO.C,C9*%
X152629324Y-91073500D02*
X152119876Y-91073500D01*
X152629324Y-90028500D02*
X152119876Y-90028500D01*
%TO.C,J3*%
X132275000Y-97790000D02*
X139895000Y-97790000D01*
X139895000Y-97790000D02*
X139895000Y-87630000D01*
X132275000Y-87630000D02*
X132275000Y-97790000D01*
X138625000Y-87630000D02*
X138625000Y-97790000D01*
X139895000Y-87630000D02*
X132275000Y-87630000D01*
%TO.C,C12*%
X147200252Y-95411600D02*
X146677748Y-95411600D01*
X147200252Y-93941600D02*
X146677748Y-93941600D01*
%TO.C,SW2*%
X138953600Y-99797400D02*
X138953600Y-99897400D01*
X138953600Y-98097400D02*
X134553600Y-98097400D01*
X134553600Y-101597400D02*
X138953600Y-101597400D01*
X134553600Y-99797400D02*
X134553600Y-99897400D01*
%TO.C,J4*%
X128439000Y-88110000D02*
X143339000Y-88110000D01*
X143339000Y-88110000D02*
X143339000Y-97310000D01*
X143339000Y-97310000D02*
X128439000Y-97310000D01*
X128439000Y-97310000D02*
X128439000Y-88110000D01*
%TO.C,U3*%
X179940000Y-91610000D02*
X180740000Y-91610000D01*
%TO.C,U5*%
X179940000Y-86530000D02*
X180740000Y-86530000D01*
%TO.C,U2*%
X154468600Y-92393600D02*
X155818600Y-92393600D01*
X155168600Y-90943600D02*
X155818600Y-90943600D01*
%TO.C,C10*%
X152629324Y-92800700D02*
X152119876Y-92800700D01*
X152629324Y-91755700D02*
X152119876Y-91755700D01*
%TO.C,R2*%
X159628100Y-91896476D02*
X159628100Y-92405924D01*
X158583100Y-91896476D02*
X158583100Y-92405924D01*
%TO.C,Y1*%
X165378400Y-87201200D02*
X165378400Y-84401200D01*
X165378400Y-84401200D02*
X162078400Y-84401200D01*
%TO.C,T1*%
X149886600Y-93306400D02*
X145186600Y-93306400D01*
X145186600Y-93306400D02*
X145186600Y-90086400D01*
X145186600Y-90086400D02*
X149886600Y-90086400D01*
X149886600Y-90086400D02*
X149886600Y-93306400D01*
X150273403Y-89846400D02*
G75*
G03*
X150273403Y-89846400I-111803J0D01*
G01*
%TO.C,C8*%
X160498200Y-96661235D02*
X160498200Y-96429565D01*
X161218200Y-96661235D02*
X161218200Y-96429565D01*
%TO.C,U1*%
X162500400Y-89574600D02*
X162975400Y-89574600D01*
X168720400Y-90049600D02*
X168720400Y-89574600D01*
X162500400Y-90049600D02*
X162500400Y-89574600D01*
X168720400Y-95319600D02*
X168720400Y-95794600D01*
X162500400Y-95319600D02*
X162500400Y-95794600D01*
X168720400Y-95794600D02*
X168245400Y-95794600D01*
X162500400Y-95794600D02*
X162975400Y-95794600D01*
%TO.C,C2*%
X169693000Y-93655335D02*
X169693000Y-93423665D01*
X170413000Y-93655335D02*
X170413000Y-93423665D01*
%TO.C,C1*%
X160904600Y-94273635D02*
X160904600Y-94041965D01*
X161624600Y-94273635D02*
X161624600Y-94041965D01*
%TO.C,C4*%
X164349165Y-87498600D02*
X164580835Y-87498600D01*
X164349165Y-88218600D02*
X164580835Y-88218600D01*
%TO.C,C11*%
X146038835Y-89514000D02*
X145807165Y-89514000D01*
X146038835Y-88794000D02*
X145807165Y-88794000D01*
%TO.C,U4*%
X179940000Y-96690000D02*
X180740000Y-96690000D01*
%TO.C,C13*%
X146837348Y-96245000D02*
X148259852Y-96245000D01*
X146837348Y-98065000D02*
X148259852Y-98065000D01*
%TO.C,C6*%
X164511400Y-97753435D02*
X164511400Y-97521765D01*
X165231400Y-97753435D02*
X165231400Y-97521765D01*
%TO.C,R1*%
X161355300Y-90575676D02*
X161355300Y-91085124D01*
X160310300Y-90575676D02*
X160310300Y-91085124D01*
%TO.C,C3*%
X163241400Y-97753435D02*
X163241400Y-97521765D01*
X163961400Y-97753435D02*
X163961400Y-97521765D01*
%TO.C,C14*%
X146038835Y-88371000D02*
X145807165Y-88371000D01*
X146038835Y-87651000D02*
X145807165Y-87651000D01*
%TO.C,C7*%
X161565000Y-96661235D02*
X161565000Y-96429565D01*
X162285000Y-96661235D02*
X162285000Y-96429565D01*
%TD*%
M02*
