%TF.GenerationSoftware,KiCad,Pcbnew,7.0.7*%
%TF.CreationDate,2023-08-17T11:34:17-04:00*%
%TF.ProjectId,adin1110-featherwing,6164696e-3131-4313-902d-666561746865,rev?*%
%TF.SameCoordinates,Original*%
%TF.FileFunction,Copper,L1,Top*%
%TF.FilePolarity,Positive*%
%FSLAX46Y46*%
G04 Gerber Fmt 4.6, Leading zero omitted, Abs format (unit mm)*
G04 Created by KiCad (PCBNEW 7.0.7) date 2023-08-17 11:34:17*
%MOMM*%
%LPD*%
G01*
G04 APERTURE LIST*
G04 Aperture macros list*
%AMRoundRect*
0 Rectangle with rounded corners*
0 $1 Rounding radius*
0 $2 $3 $4 $5 $6 $7 $8 $9 X,Y pos of 4 corners*
0 Add a 4 corners polygon primitive as box body*
4,1,4,$2,$3,$4,$5,$6,$7,$8,$9,$2,$3,0*
0 Add four circle primitives for the rounded corners*
1,1,$1+$1,$2,$3*
1,1,$1+$1,$4,$5*
1,1,$1+$1,$6,$7*
1,1,$1+$1,$8,$9*
0 Add four rect primitives between the rounded corners*
20,1,$1+$1,$2,$3,$4,$5,0*
20,1,$1+$1,$4,$5,$6,$7,0*
20,1,$1+$1,$6,$7,$8,$9,0*
20,1,$1+$1,$8,$9,$2,$3,0*%
G04 Aperture macros list end*
%TA.AperFunction,ComponentPad*%
%ADD10C,1.400000*%
%TD*%
%TA.AperFunction,SMDPad,CuDef*%
%ADD11RoundRect,0.155000X-0.212500X-0.155000X0.212500X-0.155000X0.212500X0.155000X-0.212500X0.155000X0*%
%TD*%
%TA.AperFunction,SMDPad,CuDef*%
%ADD12RoundRect,0.237500X0.250000X0.237500X-0.250000X0.237500X-0.250000X-0.237500X0.250000X-0.237500X0*%
%TD*%
%TA.AperFunction,ComponentPad*%
%ADD13R,3.000000X3.000000*%
%TD*%
%TA.AperFunction,ComponentPad*%
%ADD14C,3.000000*%
%TD*%
%TA.AperFunction,SMDPad,CuDef*%
%ADD15RoundRect,0.147500X0.147500X0.172500X-0.147500X0.172500X-0.147500X-0.172500X0.147500X-0.172500X0*%
%TD*%
%TA.AperFunction,SMDPad,CuDef*%
%ADD16RoundRect,0.250000X0.337500X0.475000X-0.337500X0.475000X-0.337500X-0.475000X0.337500X-0.475000X0*%
%TD*%
%TA.AperFunction,SMDPad,CuDef*%
%ADD17R,1.050000X0.650000*%
%TD*%
%TA.AperFunction,ComponentPad*%
%ADD18C,1.300000*%
%TD*%
%TA.AperFunction,SMDPad,CuDef*%
%ADD19RoundRect,0.147500X0.172500X-0.147500X0.172500X0.147500X-0.172500X0.147500X-0.172500X-0.147500X0*%
%TD*%
%TA.AperFunction,SMDPad,CuDef*%
%ADD20R,0.600000X0.200000*%
%TD*%
%TA.AperFunction,SMDPad,CuDef*%
%ADD21RoundRect,0.147500X-0.147500X-0.172500X0.147500X-0.172500X0.147500X0.172500X-0.147500X0.172500X0*%
%TD*%
%TA.AperFunction,SMDPad,CuDef*%
%ADD22RoundRect,0.147500X-0.172500X0.147500X-0.172500X-0.147500X0.172500X-0.147500X0.172500X0.147500X0*%
%TD*%
%TA.AperFunction,SMDPad,CuDef*%
%ADD23RoundRect,0.237500X-0.237500X0.250000X-0.237500X-0.250000X0.237500X-0.250000X0.237500X0.250000X0*%
%TD*%
%TA.AperFunction,SMDPad,CuDef*%
%ADD24R,1.150000X1.000000*%
%TD*%
%TA.AperFunction,SMDPad,CuDef*%
%ADD25R,1.200000X0.410000*%
%TD*%
%TA.AperFunction,SMDPad,CuDef*%
%ADD26R,0.420000X0.410000*%
%TD*%
%TA.AperFunction,SMDPad,CuDef*%
%ADD27R,0.400000X0.410000*%
%TD*%
%TA.AperFunction,SMDPad,CuDef*%
%ADD28R,1.200000X0.500000*%
%TD*%
%TA.AperFunction,SMDPad,CuDef*%
%ADD29RoundRect,0.155000X0.155000X-0.212500X0.155000X0.212500X-0.155000X0.212500X-0.155000X-0.212500X0*%
%TD*%
%TA.AperFunction,SMDPad,CuDef*%
%ADD30RoundRect,0.062500X-0.062500X0.350000X-0.062500X-0.350000X0.062500X-0.350000X0.062500X0.350000X0*%
%TD*%
%TA.AperFunction,SMDPad,CuDef*%
%ADD31RoundRect,0.062500X-0.350000X0.062500X-0.350000X-0.062500X0.350000X-0.062500X0.350000X0.062500X0*%
%TD*%
%TA.AperFunction,ComponentPad*%
%ADD32C,0.800000*%
%TD*%
%TA.AperFunction,SMDPad,CuDef*%
%ADD33R,4.600000X4.600000*%
%TD*%
%TA.AperFunction,SMDPad,CuDef*%
%ADD34RoundRect,0.155000X0.212500X0.155000X-0.212500X0.155000X-0.212500X-0.155000X0.212500X-0.155000X0*%
%TD*%
%TA.AperFunction,SMDPad,CuDef*%
%ADD35RoundRect,0.250000X-0.412500X-0.650000X0.412500X-0.650000X0.412500X0.650000X-0.412500X0.650000X0*%
%TD*%
%TA.AperFunction,ComponentPad*%
%ADD36C,1.700000*%
%TD*%
%TA.AperFunction,ComponentPad*%
%ADD37O,1.700000X1.700000*%
%TD*%
%TA.AperFunction,ViaPad*%
%ADD38C,0.508000*%
%TD*%
%TA.AperFunction,Conductor*%
%ADD39C,0.152400*%
%TD*%
%TA.AperFunction,Conductor*%
%ADD40C,0.203200*%
%TD*%
G04 APERTURE END LIST*
D10*
%TO.P,TP4,1,1*%
%TO.N,/LINK_ST*%
X175310800Y-85750400D03*
%TD*%
%TO.P,TP2,1,1*%
%TO.N,/LED_0*%
X175310800Y-89814400D03*
%TD*%
%TO.P,TP3,1,1*%
%TO.N,/LED_1*%
X172720000Y-89814400D03*
%TD*%
D11*
%TO.P,C5,1*%
%TO.N,GND*%
X161509900Y-87858600D03*
%TO.P,C5,2*%
%TO.N,/XTAL_O*%
X162644900Y-87858600D03*
%TD*%
D12*
%TO.P,C9,1*%
%TO.N,/Db+*%
X153287100Y-90551000D03*
%TO.P,C9,2*%
%TO.N,/Da+*%
X151462100Y-90551000D03*
%TD*%
D13*
%TO.P,J3,1*%
%TO.N,/D-*%
X136085000Y-95250000D03*
D14*
%TO.P,J3,2*%
%TO.N,/D+*%
X136085000Y-90170000D03*
%TD*%
D15*
%TO.P,R17,1*%
%TO.N,Net-(U5-A)*%
X179148600Y-88239600D03*
%TO.P,R17,2*%
%TO.N,VCC*%
X178178600Y-88239600D03*
%TD*%
D16*
%TO.P,C12,1*%
%TO.N,Net-(T1-OUT2A)*%
X147976500Y-94676600D03*
%TO.P,C12,2*%
%TO.N,Net-(T1-OUT1B)*%
X145901500Y-94676600D03*
%TD*%
D17*
%TO.P,SW2,1,1*%
%TO.N,/~{RST}*%
X138828600Y-100922400D03*
X134678600Y-100922400D03*
%TO.P,SW2,2,2*%
%TO.N,GND*%
X138828600Y-98772400D03*
X134703600Y-98772400D03*
%TD*%
D18*
%TO.P,J4,1*%
%TO.N,/D-*%
X140589000Y-94110000D03*
%TO.P,J4,2*%
%TO.N,/D+*%
X140589000Y-91310000D03*
D10*
%TO.P,J4,3*%
%TO.N,Net-(C14-Pad2)*%
X133439000Y-88260000D03*
X133439000Y-97160000D03*
X143189000Y-88910000D03*
X143189000Y-96510000D03*
%TD*%
D19*
%TO.P,U3,1,A*%
%TO.N,Net-(U3-A)*%
X180340000Y-93195000D03*
%TO.P,U3,2,K*%
%TO.N,/LED_0*%
X180340000Y-92225000D03*
%TD*%
%TO.P,R3,1*%
%TO.N,VCC*%
X166141400Y-98148000D03*
%TO.P,R3,2*%
%TO.N,/TEST1*%
X166141400Y-97178000D03*
%TD*%
%TO.P,U5,1,A*%
%TO.N,Net-(U5-A)*%
X180340000Y-88115000D03*
%TO.P,U5,2,K*%
%TO.N,/LINK_ST*%
X180340000Y-87145000D03*
%TD*%
D15*
%TO.P,R5,1*%
%TO.N,/RX-*%
X157660200Y-90881200D03*
%TO.P,R5,2*%
%TO.N,/Dc+*%
X156690200Y-90881200D03*
%TD*%
%TO.P,R9,1*%
%TO.N,Net-(U3-A)*%
X179148600Y-93318701D03*
%TO.P,R9,2*%
%TO.N,VCC*%
X178178600Y-93318701D03*
%TD*%
D19*
%TO.P,R21,1*%
%TO.N,VCC*%
X176149000Y-88140400D03*
%TO.P,R21,2*%
%TO.N,/~{RESET}*%
X176149000Y-87170400D03*
%TD*%
D20*
%TO.P,U2,1*%
%TO.N,/Db+*%
X154693600Y-91243600D03*
%TO.P,U2,2*%
%TO.N,/Db-*%
X154693600Y-91643600D03*
%TO.P,U2,3*%
%TO.N,GND*%
X154693600Y-92043600D03*
%TO.P,U2,4*%
%TO.N,unconnected-(U2-Pad4)*%
X155643600Y-92043600D03*
%TO.P,U2,5*%
%TO.N,/Dc-*%
X155643600Y-91643600D03*
%TO.P,U2,6*%
%TO.N,/Dc+*%
X155643600Y-91243600D03*
%TD*%
D21*
%TO.P,R11,1*%
%TO.N,VCC*%
X178178600Y-97179501D03*
%TO.P,R11,2*%
%TO.N,/LED_1*%
X179148600Y-97179501D03*
%TD*%
D12*
%TO.P,C10,1*%
%TO.N,/Db-*%
X153287100Y-92278200D03*
%TO.P,C10,2*%
%TO.N,/Da-*%
X151462100Y-92278200D03*
%TD*%
D22*
%TO.P,R12,1*%
%TO.N,Net-(T1-OUT2A)*%
X149580600Y-94178400D03*
%TO.P,R12,2*%
%TO.N,Net-(C13-Pad2)*%
X149580600Y-95148400D03*
%TD*%
D23*
%TO.P,R2,1*%
%TO.N,/RX-*%
X159105600Y-91238700D03*
%TO.P,R2,2*%
%TO.N,/TX+*%
X159105600Y-93063700D03*
%TD*%
D21*
%TO.P,R20,1*%
%TO.N,/~{CS}*%
X167358200Y-97205800D03*
%TO.P,R20,2*%
%TO.N,VCC*%
X168328200Y-97205800D03*
%TD*%
D24*
%TO.P,Y1,1,1*%
%TO.N,/XTAL_I*%
X164603400Y-85101200D03*
%TO.P,Y1,2,2*%
%TO.N,GND*%
X162853400Y-85101200D03*
%TO.P,Y1,3,3*%
%TO.N,/XTAL_O*%
X162853400Y-86501200D03*
%TO.P,Y1,4,4*%
%TO.N,GND*%
X164603400Y-86501200D03*
%TD*%
D25*
%TO.P,T1,1,IN+*%
%TO.N,/Da+*%
X149536600Y-90346400D03*
%TO.P,T1,2,IN-*%
%TO.N,/Da-*%
X149536600Y-90996400D03*
D26*
%TO.P,T1,3,OUT2A*%
%TO.N,Net-(T1-OUT2A)*%
X149926600Y-93046400D03*
D27*
%TO.P,T1,4,OUT1B*%
%TO.N,Net-(T1-OUT1B)*%
X149136600Y-93046400D03*
D28*
%TO.P,T1,5,PM*%
%TO.N,Net-(T1-PM)*%
X145536600Y-90391400D03*
D25*
%TO.P,T1,6,OUT1A*%
%TO.N,/D+*%
X145536600Y-92396400D03*
%TO.P,T1,7,OUT2B*%
%TO.N,/D-*%
X145536600Y-93046400D03*
%TD*%
D29*
%TO.P,C8,1*%
%TO.N,GND*%
X160858200Y-97112900D03*
%TO.P,C8,2*%
%TO.N,/CEXT_2*%
X160858200Y-95977900D03*
%TD*%
D21*
%TO.P,R7,1*%
%TO.N,/Dc-*%
X156690200Y-93116400D03*
%TO.P,R7,2*%
%TO.N,/TX+*%
X157660200Y-93116400D03*
%TD*%
D15*
%TO.P,R19,1*%
%TO.N,VCC*%
X159743000Y-97129600D03*
%TO.P,R19,2*%
%TO.N,/~{INT}*%
X158773000Y-97129600D03*
%TD*%
D30*
%TO.P,U1,1,SDI*%
%TO.N,/MOSI*%
X167860400Y-89747100D03*
%TO.P,U1,2,SDO*%
%TO.N,/MISO*%
X167360400Y-89747100D03*
%TO.P,U1,3,LED_0*%
%TO.N,/LED_0*%
X166860400Y-89747100D03*
%TO.P,U1,4,LINK_ST*%
%TO.N,/LINK_ST*%
X166360400Y-89747100D03*
%TO.P,U1,5,~{RST}*%
%TO.N,/~{RESET}*%
X165860400Y-89747100D03*
%TO.P,U1,6,LED_1*%
%TO.N,/LED_1*%
X165360400Y-89747100D03*
%TO.P,U1,7,CLK25_REF*%
%TO.N,unconnected-(U1-CLK25_REF-Pad7)*%
X164860400Y-89747100D03*
%TO.P,U1,8,XTAL_I/CLK_IN*%
%TO.N,/XTAL_I*%
X164360400Y-89747100D03*
%TO.P,U1,9,XTAL_O*%
%TO.N,/XTAL_O*%
X163860400Y-89747100D03*
%TO.P,U1,10*%
%TO.N,unconnected-(U1-Pad10)*%
X163360400Y-89747100D03*
D31*
%TO.P,U1,11*%
%TO.N,unconnected-(U1-Pad11)*%
X162672900Y-90434600D03*
%TO.P,U1,12,TXN*%
%TO.N,/TX-*%
X162672900Y-90934600D03*
%TO.P,U1,13,RXN*%
%TO.N,/RX-*%
X162672900Y-91434600D03*
%TO.P,U1,14,RXP*%
%TO.N,/RX+*%
X162672900Y-91934600D03*
%TO.P,U1,15,TXP*%
%TO.N,/TX+*%
X162672900Y-92434600D03*
%TO.P,U1,16,AVDD_H*%
%TO.N,VCC*%
X162672900Y-92934600D03*
%TO.P,U1,17,AVDD_H*%
X162672900Y-93434600D03*
%TO.P,U1,18*%
%TO.N,unconnected-(U1-Pad18)*%
X162672900Y-93934600D03*
%TO.P,U1,19,CEXT_2*%
%TO.N,/CEXT_2*%
X162672900Y-94434600D03*
%TO.P,U1,20,CEXT_3*%
%TO.N,/CEXT_3*%
X162672900Y-94934600D03*
D30*
%TO.P,U1,21*%
%TO.N,unconnected-(U1-Pad21)*%
X163360400Y-95622100D03*
%TO.P,U1,22,AVDD_L*%
%TO.N,VCC*%
X163860400Y-95622100D03*
%TO.P,U1,23,DLDO_1P1*%
%TO.N,/1V1*%
X164360400Y-95622100D03*
%TO.P,U1,24,DVDD_1P1*%
X164860400Y-95622100D03*
%TO.P,U1,25,~{INT}*%
%TO.N,/~{INT}*%
X165360400Y-95622100D03*
%TO.P,U1,26,TEST1*%
%TO.N,/TEST1*%
X165860400Y-95622100D03*
%TO.P,U1,27,TEST2*%
%TO.N,unconnected-(U1-TEST2-Pad27)*%
X166360400Y-95622100D03*
%TO.P,U1,28*%
%TO.N,unconnected-(U1-Pad28)*%
X166860400Y-95622100D03*
%TO.P,U1,29,~{CS}*%
%TO.N,/~{CS}*%
X167360400Y-95622100D03*
%TO.P,U1,30,TS_TIMER/MS_SEL*%
%TO.N,/MS_SEL*%
X167860400Y-95622100D03*
D31*
%TO.P,U1,31,~{TX2P4_EN}*%
%TO.N,/~{TX2P4_EN}*%
X168547900Y-94934600D03*
%TO.P,U1,32*%
%TO.N,unconnected-(U1-Pad32)*%
X168547900Y-94434600D03*
%TO.P,U1,33,~{SWPD_EN}*%
%TO.N,/~{SWPD_EN}*%
X168547900Y-93934600D03*
%TO.P,U1,34*%
%TO.N,unconnected-(U1-Pad34)*%
X168547900Y-93434600D03*
%TO.P,U1,35,VDDIO*%
%TO.N,VCC*%
X168547900Y-92934600D03*
%TO.P,U1,36*%
%TO.N,unconnected-(U1-Pad36)*%
X168547900Y-92434600D03*
%TO.P,U1,37,SPI_CFG1*%
%TO.N,/SPI_CFG1*%
X168547900Y-91934600D03*
%TO.P,U1,38,SCLK*%
%TO.N,/SCK*%
X168547900Y-91434600D03*
%TO.P,U1,39*%
%TO.N,unconnected-(U1-Pad39)*%
X168547900Y-90934600D03*
%TO.P,U1,40,TS_CAPT*%
%TO.N,unconnected-(U1-TS_CAPT-Pad40)*%
X168547900Y-90434600D03*
D32*
%TO.P,U1,41,GND/PAD*%
%TO.N,GND*%
X167500400Y-90774600D03*
X166400400Y-90794600D03*
X165060400Y-90804600D03*
X163750400Y-90824600D03*
X167490400Y-92007933D03*
X166400400Y-92027933D03*
X165060400Y-92037933D03*
X163750400Y-92057933D03*
D33*
X165610400Y-92684600D03*
D32*
X167490400Y-93241266D03*
X166400400Y-93261266D03*
X165060400Y-93271266D03*
X163750400Y-93291266D03*
X167490400Y-94474600D03*
X166400400Y-94494600D03*
X165060400Y-94504600D03*
X163750400Y-94524600D03*
%TD*%
D29*
%TO.P,C2,1*%
%TO.N,GND*%
X170053000Y-94107000D03*
%TO.P,C2,2*%
%TO.N,VCC*%
X170053000Y-92972000D03*
%TD*%
%TO.P,C1,1*%
%TO.N,GND*%
X161264600Y-94725300D03*
%TO.P,C1,2*%
%TO.N,VCC*%
X161264600Y-93590300D03*
%TD*%
D11*
%TO.P,C4,1*%
%TO.N,GND*%
X163897500Y-87858600D03*
%TO.P,C4,2*%
%TO.N,/XTAL_I*%
X165032500Y-87858600D03*
%TD*%
D34*
%TO.P,C11,1*%
%TO.N,GND*%
X146490500Y-89154000D03*
%TO.P,C11,2*%
%TO.N,Net-(T1-PM)*%
X145355500Y-89154000D03*
%TD*%
D19*
%TO.P,U4,1,A*%
%TO.N,Net-(U4-A)*%
X180340000Y-98275000D03*
%TO.P,U4,2,K*%
%TO.N,/LED_1*%
X180340000Y-97305000D03*
%TD*%
D35*
%TO.P,C13,1*%
%TO.N,GND*%
X145986100Y-97155000D03*
%TO.P,C13,2*%
%TO.N,Net-(C13-Pad2)*%
X149111100Y-97155000D03*
%TD*%
D29*
%TO.P,C6,1*%
%TO.N,GND*%
X164871400Y-98205100D03*
%TO.P,C6,2*%
%TO.N,/1V1*%
X164871400Y-97070100D03*
%TD*%
D36*
%TO.P,J2,1*%
%TO.N,VBAT*%
X148590000Y-82550000D03*
D37*
%TO.P,J2,2*%
%TO.N,/~{EN}*%
X151130000Y-82550000D03*
%TO.P,J2,3*%
%TO.N,VUSB*%
X153670000Y-82550000D03*
%TO.P,J2,4*%
%TO.N,/D13*%
X156210000Y-82550000D03*
%TO.P,J2,5*%
%TO.N,/D12*%
X158750000Y-82550000D03*
%TO.P,J2,6*%
%TO.N,/D11*%
X161290000Y-82550000D03*
%TO.P,J2,7*%
%TO.N,/D10*%
X163830000Y-82550000D03*
%TO.P,J2,8*%
%TO.N,/D9*%
X166370000Y-82550000D03*
%TO.P,J2,9*%
%TO.N,/D6*%
X168910000Y-82550000D03*
%TO.P,J2,10*%
%TO.N,/~{RST}_DEF*%
X171450000Y-82550000D03*
%TO.P,J2,11*%
%TO.N,/SCL*%
X173990000Y-82550000D03*
%TO.P,J2,12*%
%TO.N,/SDA*%
X176530000Y-82550000D03*
%TD*%
D23*
%TO.P,R1,1*%
%TO.N,/TX-*%
X160832800Y-89917900D03*
%TO.P,R1,2*%
%TO.N,/RX+*%
X160832800Y-91742900D03*
%TD*%
D21*
%TO.P,R8,1*%
%TO.N,VCC*%
X178178600Y-92099501D03*
%TO.P,R8,2*%
%TO.N,/LED_0*%
X179148600Y-92099501D03*
%TD*%
D29*
%TO.P,C3,1*%
%TO.N,GND*%
X163601400Y-98205100D03*
%TO.P,C3,2*%
%TO.N,VCC*%
X163601400Y-97070100D03*
%TD*%
D15*
%TO.P,R6,1*%
%TO.N,/RX+*%
X157660200Y-91998800D03*
%TO.P,R6,2*%
%TO.N,/Dc-*%
X156690200Y-91998800D03*
%TD*%
D36*
%TO.P,J1,1*%
%TO.N,/USER*%
X176530000Y-102870000D03*
D37*
%TO.P,J1,2*%
%TO.N,/TX*%
X173990000Y-102870000D03*
%TO.P,J1,3*%
%TO.N,/RX*%
X171450000Y-102870000D03*
%TO.P,J1,4*%
%TO.N,/MISO*%
X168910000Y-102870000D03*
%TO.P,J1,5*%
%TO.N,/MOSI*%
X166370000Y-102870000D03*
%TO.P,J1,6*%
%TO.N,/SCK*%
X163830000Y-102870000D03*
%TO.P,J1,7*%
%TO.N,/~{CS}_DEF*%
X161290000Y-102870000D03*
%TO.P,J1,8*%
%TO.N,/~{INT}_DEF*%
X158750000Y-102870000D03*
%TO.P,J1,9*%
%TO.N,/A3*%
X156210000Y-102870000D03*
%TO.P,J1,10*%
%TO.N,/A2*%
X153670000Y-102870000D03*
%TO.P,J1,11*%
%TO.N,/A1*%
X151130000Y-102870000D03*
%TO.P,J1,12*%
%TO.N,/A0*%
X148590000Y-102870000D03*
%TO.P,J1,13*%
%TO.N,GND*%
X146050000Y-102870000D03*
%TO.P,J1,14*%
%TO.N,/VREF*%
X143510000Y-102870000D03*
%TO.P,J1,15*%
%TO.N,VCC*%
X140970000Y-102870000D03*
%TO.P,J1,16*%
%TO.N,/~{RST}*%
X138430000Y-102870000D03*
%TD*%
D15*
%TO.P,R14,1*%
%TO.N,Net-(U4-A)*%
X179148600Y-98449501D03*
%TO.P,R14,2*%
%TO.N,VCC*%
X178178600Y-98449501D03*
%TD*%
D34*
%TO.P,C14,1*%
%TO.N,GND*%
X146490500Y-88011000D03*
%TO.P,C14,2*%
%TO.N,Net-(C14-Pad2)*%
X145355500Y-88011000D03*
%TD*%
D29*
%TO.P,C7,1*%
%TO.N,GND*%
X161925000Y-97112900D03*
%TO.P,C7,2*%
%TO.N,/CEXT_3*%
X161925000Y-95977900D03*
%TD*%
D21*
%TO.P,R4,1*%
%TO.N,/Dc+*%
X156690200Y-89814400D03*
%TO.P,R4,2*%
%TO.N,/TX-*%
X157660200Y-89814400D03*
%TD*%
%TO.P,R15,1*%
%TO.N,VCC*%
X178178600Y-87071200D03*
%TO.P,R15,2*%
%TO.N,/LINK_ST*%
X179148600Y-87071200D03*
%TD*%
D38*
%TO.N,GND*%
X160959800Y-87858600D03*
X135356600Y-98983800D03*
X169646600Y-93751400D03*
X164058600Y-87223600D03*
X146989800Y-88011000D03*
X161391600Y-97078800D03*
X147040600Y-89154000D03*
X164236400Y-98171000D03*
X145948400Y-96164400D03*
X160756600Y-94716600D03*
X138150600Y-98958400D03*
X154711400Y-92481400D03*
%TO.N,VCC*%
X157200600Y-98298000D03*
X177622200Y-98450400D03*
X169722800Y-98247200D03*
X160045400Y-98374200D03*
X177520600Y-91338400D03*
X166624000Y-98145600D03*
X177622200Y-96189800D03*
X162585400Y-98272600D03*
X177647600Y-94005400D03*
X165430200Y-100330000D03*
X172567600Y-98348800D03*
%TO.N,/MISO*%
X167817800Y-88518500D03*
%TO.N,/MOSI*%
X170383200Y-89789000D03*
%TO.N,/SCK*%
X169519600Y-91440000D03*
%TO.N,/~{INT}*%
X164261800Y-98933000D03*
X159181800Y-97739200D03*
%TO.N,/~{CS}*%
X164236400Y-99618800D03*
%TO.N,/~{TX2P4_EN}*%
X171983400Y-94970600D03*
%TO.N,/SPI_CFG1*%
X171983400Y-93040200D03*
%TO.N,/~{SWPD_EN}*%
X171983400Y-94234000D03*
%TO.N,/MS_SEL*%
X171983400Y-95681800D03*
%TO.N,/LED_1*%
X165836600Y-87960200D03*
X167995600Y-87528400D03*
%TO.N,/~{RESET}*%
X173304200Y-86563200D03*
X165836600Y-88823800D03*
%TD*%
D39*
%TO.N,GND*%
X164058600Y-87046000D02*
X164603400Y-86501200D01*
X164058600Y-87223600D02*
X164058600Y-87046000D01*
X163203400Y-85101200D02*
X164603400Y-86501200D01*
X162853400Y-85101200D02*
X163203400Y-85101200D01*
X154711400Y-92481400D02*
X154711400Y-92061400D01*
X163601400Y-98205100D02*
X164871400Y-98205100D01*
X163897500Y-87858600D02*
X163897500Y-87384700D01*
X154711400Y-92061400D02*
X154693600Y-92043600D01*
X163897500Y-87384700D02*
X164058600Y-87223600D01*
%TO.N,VCC*%
X163601400Y-97070100D02*
X163601400Y-97256600D01*
X159743000Y-97129600D02*
X159743000Y-98071800D01*
X176149000Y-88140400D02*
X178079400Y-88140400D01*
X161420300Y-93434600D02*
X162672900Y-93434600D01*
X163601400Y-97070100D02*
X163860400Y-96811100D01*
X157988000Y-97510600D02*
X157200600Y-98298000D01*
X168547900Y-92934600D02*
X170014900Y-92934600D01*
X169369600Y-98247200D02*
X169722800Y-98247200D01*
X157988000Y-96342200D02*
X157988000Y-97510600D01*
X162672900Y-92934600D02*
X162672900Y-93434600D01*
X170603800Y-93522800D02*
X172313600Y-93522800D01*
X170053000Y-92972000D02*
X170603800Y-93522800D01*
X168328200Y-97205800D02*
X169369600Y-98247200D01*
X163860400Y-96811100D02*
X163860400Y-95622100D01*
X163601400Y-97256600D02*
X162585400Y-98272600D01*
X159743000Y-98071800D02*
X160045400Y-98374200D01*
X172567600Y-93776800D02*
X172567600Y-98348800D01*
X160149400Y-98270200D02*
X160045400Y-98374200D01*
X170014900Y-92934600D02*
X170018900Y-92938600D01*
X160739900Y-93590300D02*
X157988000Y-96342200D01*
X161264600Y-93590300D02*
X161420300Y-93434600D01*
X178079400Y-88140400D02*
X178178600Y-88239600D01*
X161264600Y-93590300D02*
X160739900Y-93590300D01*
X172313600Y-93522800D02*
X172567600Y-93776800D01*
%TO.N,/1V1*%
X164871400Y-97070100D02*
X164871400Y-95633100D01*
X164871400Y-95633100D02*
X164860400Y-95622100D01*
X164360400Y-95622100D02*
X164860400Y-95622100D01*
%TO.N,/MISO*%
X167817800Y-88518500D02*
X167360400Y-88975900D01*
X167360400Y-88975900D02*
X167360400Y-89747100D01*
%TO.N,/MOSI*%
X170383200Y-89789000D02*
X170341300Y-89747100D01*
X170341300Y-89747100D02*
X167860400Y-89747100D01*
%TO.N,/SCK*%
X169514200Y-91434600D02*
X168547900Y-91434600D01*
X169519600Y-91440000D02*
X169514200Y-91434600D01*
%TO.N,/~{RST}*%
X136660200Y-101100200D02*
X138430000Y-102870000D01*
X138828600Y-102471400D02*
X138430000Y-102870000D01*
X134678600Y-101100200D02*
X136660200Y-101100200D01*
X138828600Y-101100200D02*
X138828600Y-102471400D01*
%TO.N,Net-(T1-PM)*%
X145355500Y-89154000D02*
X145355500Y-90210300D01*
X145355500Y-90210300D02*
X145536600Y-90391400D01*
%TO.N,Net-(T1-OUT2A)*%
X149580600Y-94178400D02*
X149926600Y-93832400D01*
X148474700Y-94178400D02*
X147976500Y-94676600D01*
X149580600Y-94178400D02*
X148474700Y-94178400D01*
X149926600Y-93832400D02*
X149926600Y-93046400D01*
%TO.N,Net-(T1-OUT1B)*%
X145901500Y-94676600D02*
X147531700Y-93046400D01*
X147531700Y-93046400D02*
X149136600Y-93046400D01*
%TO.N,Net-(C13-Pad2)*%
X149111100Y-95617900D02*
X149580600Y-95148400D01*
X149111100Y-97155000D02*
X149111100Y-95617900D01*
%TO.N,/~{INT}*%
X158773000Y-97129600D02*
X158773000Y-97330400D01*
X158773000Y-97330400D02*
X159181800Y-97739200D01*
X165410000Y-95671700D02*
X165360400Y-95622100D01*
X164261800Y-98933000D02*
X165053492Y-98933000D01*
X165410000Y-98576492D02*
X165410000Y-95671700D01*
X165053492Y-98933000D02*
X165410000Y-98576492D01*
%TO.N,/~{CS}*%
X164236400Y-99618800D02*
X166090600Y-99618800D01*
X167360400Y-98349000D02*
X167360400Y-95622100D01*
X166090600Y-99618800D02*
X167360400Y-98349000D01*
%TO.N,/~{TX2P4_EN}*%
X171704000Y-95250000D02*
X171983400Y-94970600D01*
X168863300Y-95250000D02*
X171704000Y-95250000D01*
X168547900Y-94934600D02*
X168863300Y-95250000D01*
%TO.N,/SPI_CFG1*%
X170877800Y-91934600D02*
X168547900Y-91934600D01*
X171983400Y-93040200D02*
X170877800Y-91934600D01*
%TO.N,/~{SWPD_EN}*%
X169773600Y-94843600D02*
X171119800Y-94843600D01*
X168547900Y-93934600D02*
X168890000Y-93934600D01*
X168890000Y-93934600D02*
X169773600Y-94818200D01*
X171119800Y-94843600D02*
X171729400Y-94234000D01*
X171729400Y-94234000D02*
X171983400Y-94234000D01*
X169773600Y-94818200D02*
X169773600Y-94843600D01*
%TO.N,/MS_SEL*%
X171983400Y-95681800D02*
X167920100Y-95681800D01*
X167920100Y-95681800D02*
X167860400Y-95622100D01*
%TO.N,/LED_0*%
X179274099Y-92225000D02*
X179148600Y-92099501D01*
X166860400Y-87901600D02*
X166860400Y-89747100D01*
X176149000Y-90576400D02*
X172339000Y-86766400D01*
X177977800Y-90576400D02*
X176149000Y-90576400D01*
X180340000Y-92225000D02*
X179274099Y-92225000D01*
X179148600Y-91747200D02*
X177977800Y-90576400D01*
X172339000Y-86766400D02*
X167995600Y-86766400D01*
X167995600Y-86766400D02*
X166860400Y-87901600D01*
X179148600Y-92099501D02*
X179148600Y-91747200D01*
%TO.N,Net-(U3-A)*%
X180216299Y-93318701D02*
X180340000Y-93195000D01*
X179148600Y-93318701D02*
X180216299Y-93318701D01*
%TO.N,/LED_1*%
X179148600Y-96751000D02*
X176758600Y-94361000D01*
X165252400Y-88544400D02*
X165252400Y-89639100D01*
X179274099Y-97305000D02*
X179148600Y-97179501D01*
X180340000Y-97305000D02*
X179274099Y-97305000D01*
X165836600Y-87960200D02*
X165836600Y-87964492D01*
X169926000Y-87528400D02*
X167995600Y-87528400D01*
X165328600Y-88468200D02*
X165252400Y-88544400D01*
X176758600Y-94361000D02*
X169926000Y-87528400D01*
X179148600Y-97179501D02*
X179148600Y-96751000D01*
X165836600Y-87964492D02*
X165332892Y-88468200D01*
X165252400Y-89639100D02*
X165360400Y-89747100D01*
X165332892Y-88468200D02*
X165328600Y-88468200D01*
%TO.N,Net-(U4-A)*%
X180165499Y-98449501D02*
X180340000Y-98275000D01*
X179148600Y-98449501D02*
X180165499Y-98449501D01*
%TO.N,/LINK_ST*%
X166360400Y-89747100D02*
X166360400Y-87538000D01*
X180340000Y-87145000D02*
X179222400Y-87145000D01*
X168148000Y-85750400D02*
X177827800Y-85750400D01*
X177827800Y-85750400D02*
X179148600Y-87071200D01*
X179222400Y-87145000D02*
X179148600Y-87071200D01*
X166360400Y-87538000D02*
X168148000Y-85750400D01*
%TO.N,Net-(U5-A)*%
X179148600Y-88239600D02*
X180215400Y-88239600D01*
X180215400Y-88239600D02*
X180340000Y-88115000D01*
D40*
%TO.N,/D-*%
X139417601Y-92938601D02*
X140589000Y-94110000D01*
X141760400Y-92938600D02*
X143967200Y-92938600D01*
X143967200Y-92938600D02*
X143978600Y-92950000D01*
X143978600Y-92950000D02*
X144540199Y-92950000D01*
X138396399Y-92938601D02*
X139417601Y-92938601D01*
X140589000Y-94110000D02*
X141760400Y-92938600D01*
X136085000Y-95250000D02*
X138396399Y-92938601D01*
X144540199Y-92950000D02*
X144636599Y-93046400D01*
X144636599Y-93046400D02*
X145536600Y-93046400D01*
%TO.N,/D+*%
X144153561Y-92492800D02*
X144540199Y-92492800D01*
X144636599Y-92396400D02*
X145536600Y-92396400D01*
X144142161Y-92481400D02*
X144153561Y-92492800D01*
X141760400Y-92481400D02*
X144142161Y-92481400D01*
X139417601Y-92481399D02*
X140589000Y-91310000D01*
X136085000Y-90170000D02*
X138396399Y-92481399D01*
X138396399Y-92481399D02*
X139417601Y-92481399D01*
X144540199Y-92492800D02*
X144636599Y-92396400D01*
X140589000Y-91310000D02*
X141760400Y-92481400D01*
D39*
%TO.N,/CEXT_3*%
X162672900Y-95179200D02*
X161925000Y-95927100D01*
X162672900Y-94934600D02*
X162672900Y-95179200D01*
%TO.N,/CEXT_2*%
X161925000Y-94792800D02*
X162283200Y-94434600D01*
X161925000Y-94974892D02*
X161925000Y-94792800D01*
X162283200Y-94434600D02*
X162672900Y-94434600D01*
X160858200Y-95977900D02*
X160917700Y-95977900D01*
X161522892Y-95377000D02*
X161925000Y-94974892D01*
X160917700Y-95977900D02*
X161518600Y-95377000D01*
X161518600Y-95377000D02*
X161522892Y-95377000D01*
%TO.N,/TEST1*%
X166141400Y-96291400D02*
X165860400Y-96010400D01*
X165860400Y-96010400D02*
X165860400Y-95622100D01*
X166141400Y-97178000D02*
X166141400Y-96291400D01*
%TO.N,/XTAL_I*%
X165032500Y-88053100D02*
X164360400Y-88725200D01*
X165582600Y-85979000D02*
X165582600Y-87308500D01*
X165032500Y-87858600D02*
X165032500Y-88053100D01*
X165582600Y-87308500D02*
X165032500Y-87858600D01*
X164603400Y-85228200D02*
X164831800Y-85228200D01*
X164831800Y-85228200D02*
X165582600Y-85979000D01*
X164360400Y-88725200D02*
X164360400Y-89747100D01*
%TO.N,/XTAL_O*%
X162853400Y-87650100D02*
X162644900Y-87858600D01*
X162644900Y-87858600D02*
X162788600Y-87858600D01*
X163860400Y-88930400D02*
X163860400Y-89747100D01*
X162853400Y-86628200D02*
X162853400Y-87650100D01*
X162788600Y-87858600D02*
X163860400Y-88930400D01*
%TO.N,Net-(C14-Pad2)*%
X143189000Y-88910000D02*
X144088000Y-88011000D01*
X133439000Y-97160000D02*
X133439000Y-88260000D01*
X142539000Y-88260000D02*
X143189000Y-88910000D01*
X133439000Y-97160000D02*
X142539000Y-97160000D01*
X133439000Y-88260000D02*
X142539000Y-88260000D01*
X144088000Y-88011000D02*
X145355500Y-88011000D01*
X142539000Y-97160000D02*
X143189000Y-96510000D01*
D40*
%TO.N,/Db+*%
X153287100Y-90551000D02*
X153299600Y-90551000D01*
X153934600Y-91186000D02*
X154204953Y-91186000D01*
X153299600Y-90551000D02*
X153934600Y-91186000D01*
X154233952Y-91214999D02*
X154664999Y-91214999D01*
X154204953Y-91186000D02*
X154233952Y-91214999D01*
X154664999Y-91214999D02*
X154693600Y-91243600D01*
%TO.N,/Da+*%
X149727600Y-90537400D02*
X151436000Y-90537400D01*
X149536600Y-90346400D02*
X149727600Y-90537400D01*
X151449600Y-90551000D02*
X151462100Y-90551000D01*
X151436000Y-90537400D02*
X151449600Y-90551000D01*
%TO.N,/Db-*%
X154664999Y-91672201D02*
X154693600Y-91643600D01*
X154058993Y-91672201D02*
X154664999Y-91672201D01*
X153934600Y-91643200D02*
X154029992Y-91643200D01*
X154029992Y-91643200D02*
X154058993Y-91672201D01*
X153287100Y-92278200D02*
X153299600Y-92278200D01*
X153299600Y-92278200D02*
X153934600Y-91643200D01*
%TO.N,/Da-*%
X149536600Y-90996400D02*
X150167800Y-90996400D01*
X151449600Y-92278200D02*
X151462100Y-92278200D01*
X150167800Y-90996400D02*
X151449600Y-92278200D01*
%TO.N,/TX-*%
X162551900Y-91055600D02*
X162672900Y-90934600D01*
X161633401Y-90497200D02*
X162191801Y-91055600D01*
X162191801Y-91055600D02*
X162551900Y-91055600D01*
X157660200Y-89814400D02*
X158503757Y-90657957D01*
X158664514Y-90497200D02*
X161633401Y-90497200D01*
X158503757Y-90657957D02*
X158664514Y-90497200D01*
%TO.N,/RX+*%
X162364000Y-91913200D02*
X162385400Y-91934600D01*
X160832800Y-91742900D02*
X160879800Y-91695900D01*
X162385400Y-91934600D02*
X162672900Y-91934600D01*
X161855964Y-91913200D02*
X162364000Y-91913200D01*
X159546686Y-91980200D02*
X159783986Y-91742900D01*
X159783986Y-91742900D02*
X160832800Y-91742900D01*
X161638664Y-91695900D02*
X161855964Y-91913200D01*
X157660200Y-91998800D02*
X159172990Y-91998800D01*
X159191590Y-91980200D02*
X159546686Y-91980200D01*
X160879800Y-91695900D02*
X161638664Y-91695900D01*
X159172990Y-91998800D02*
X159191590Y-91980200D01*
%TO.N,/RX-*%
X162364000Y-91456000D02*
X162385400Y-91434600D01*
X157660200Y-90881200D02*
X158320600Y-91541600D01*
X158983610Y-91541600D02*
X159105600Y-91419610D01*
X162385400Y-91434600D02*
X162672900Y-91434600D01*
X161828044Y-91238700D02*
X162045344Y-91456000D01*
X159105600Y-91238700D02*
X160154414Y-91238700D01*
X159105600Y-91419610D02*
X159105600Y-91238700D01*
X162045344Y-91456000D02*
X162364000Y-91456000D01*
X160391714Y-91001400D02*
X161273886Y-91001400D01*
X158320600Y-91541600D02*
X158983610Y-91541600D01*
X160154414Y-91238700D02*
X160391714Y-91001400D01*
X161273886Y-91001400D02*
X161511186Y-91238700D01*
X161511186Y-91238700D02*
X161828044Y-91238700D01*
%TO.N,/TX+*%
X160940187Y-92968800D02*
X161285279Y-92968800D01*
X160845287Y-93063700D02*
X160940187Y-92968800D01*
X161285279Y-92968800D02*
X161819479Y-92434600D01*
D39*
X159052900Y-93116400D02*
X159105600Y-93063700D01*
X157660200Y-93116400D02*
X159052900Y-93116400D01*
D40*
X161819479Y-92434600D02*
X162672900Y-92434600D01*
X159105600Y-93063700D02*
X160845287Y-93063700D01*
%TO.N,/Dc+*%
X156048515Y-91214999D02*
X155672201Y-91214999D01*
X156335000Y-91211400D02*
X156052114Y-91211400D01*
X156690200Y-90881200D02*
X156665200Y-90881200D01*
X155672201Y-91214999D02*
X155643600Y-91243600D01*
X156052114Y-91211400D02*
X156048515Y-91214999D01*
X156665200Y-90881200D02*
X156335000Y-91211400D01*
X156690200Y-89814400D02*
X156690200Y-90881200D01*
%TO.N,/Dc-*%
X156223474Y-91672201D02*
X155672201Y-91672201D01*
X156227075Y-91668600D02*
X156223474Y-91672201D01*
X156335000Y-91668600D02*
X156227075Y-91668600D01*
X156665200Y-91998800D02*
X156335000Y-91668600D01*
X155672201Y-91672201D02*
X155643600Y-91643600D01*
X156690200Y-91998800D02*
X156690200Y-93116400D01*
X156690200Y-91998800D02*
X156665200Y-91998800D01*
D39*
%TO.N,/~{RESET}*%
X165836600Y-89723300D02*
X165860400Y-89747100D01*
X173911400Y-87170400D02*
X173304200Y-86563200D01*
X176149000Y-87170400D02*
X173911400Y-87170400D01*
X165836600Y-88823800D02*
X165836600Y-89723300D01*
%TD*%
%TA.AperFunction,Conductor*%
%TO.N,VCC*%
G36*
X182669221Y-85135402D02*
G01*
X182715714Y-85189058D01*
X182727100Y-85241400D01*
X182727100Y-101598114D01*
X182726985Y-101601919D01*
X182709926Y-101883926D01*
X182709008Y-101891485D01*
X182658424Y-102167517D01*
X182656601Y-102174911D01*
X182573111Y-102442839D01*
X182570411Y-102449959D01*
X182455239Y-102705861D01*
X182451700Y-102712603D01*
X182306517Y-102952766D01*
X182302191Y-102959032D01*
X182129122Y-103179940D01*
X182124073Y-103185639D01*
X181925639Y-103384073D01*
X181919940Y-103389122D01*
X181699032Y-103562191D01*
X181692766Y-103566517D01*
X181452603Y-103711700D01*
X181445861Y-103715239D01*
X181189959Y-103830411D01*
X181182839Y-103833111D01*
X180914911Y-103916601D01*
X180907517Y-103918424D01*
X180631485Y-103969008D01*
X180623926Y-103969926D01*
X180410015Y-103982865D01*
X180341900Y-103986985D01*
X180338099Y-103987100D01*
X177635369Y-103987100D01*
X177567248Y-103967098D01*
X177520755Y-103913442D01*
X177510651Y-103843168D01*
X177540145Y-103778588D01*
X177542669Y-103775762D01*
X177605714Y-103707277D01*
X177605724Y-103707265D01*
X177668549Y-103611104D01*
X177728860Y-103518791D01*
X177819296Y-103312616D01*
X177874564Y-103094368D01*
X177893156Y-102870000D01*
X177874564Y-102645632D01*
X177819296Y-102427384D01*
X177728860Y-102221209D01*
X177711597Y-102194786D01*
X177605724Y-102032734D01*
X177605720Y-102032729D01*
X177453584Y-101867468D01*
X177453240Y-101867094D01*
X177453239Y-101867093D01*
X177453237Y-101867091D01*
X177371382Y-101803381D01*
X177275576Y-101728811D01*
X177077574Y-101621658D01*
X177077572Y-101621657D01*
X177077571Y-101621656D01*
X176864639Y-101548557D01*
X176864630Y-101548555D01*
X176787029Y-101535606D01*
X176642569Y-101511500D01*
X176417431Y-101511500D01*
X176272971Y-101535606D01*
X176195369Y-101548555D01*
X176195360Y-101548557D01*
X175982428Y-101621656D01*
X175982426Y-101621658D01*
X175784426Y-101728810D01*
X175784424Y-101728811D01*
X175606762Y-101867091D01*
X175454279Y-102032729D01*
X175365483Y-102168643D01*
X175311479Y-102214731D01*
X175241131Y-102224306D01*
X175176774Y-102194329D01*
X175154517Y-102168643D01*
X175065720Y-102032729D01*
X174913584Y-101867468D01*
X174913240Y-101867094D01*
X174913239Y-101867093D01*
X174913237Y-101867091D01*
X174831382Y-101803381D01*
X174735576Y-101728811D01*
X174537574Y-101621658D01*
X174537572Y-101621657D01*
X174537571Y-101621656D01*
X174324639Y-101548557D01*
X174324630Y-101548555D01*
X174247029Y-101535606D01*
X174102569Y-101511500D01*
X173877431Y-101511500D01*
X173732971Y-101535606D01*
X173655369Y-101548555D01*
X173655360Y-101548557D01*
X173442428Y-101621656D01*
X173442426Y-101621658D01*
X173244426Y-101728810D01*
X173244424Y-101728811D01*
X173066762Y-101867091D01*
X172914279Y-102032729D01*
X172825483Y-102168643D01*
X172771479Y-102214731D01*
X172701131Y-102224306D01*
X172636774Y-102194329D01*
X172614517Y-102168643D01*
X172525720Y-102032729D01*
X172373584Y-101867468D01*
X172373240Y-101867094D01*
X172373239Y-101867093D01*
X172373237Y-101867091D01*
X172291382Y-101803381D01*
X172195576Y-101728811D01*
X171997574Y-101621658D01*
X171997572Y-101621657D01*
X171997571Y-101621656D01*
X171784639Y-101548557D01*
X171784630Y-101548555D01*
X171707029Y-101535606D01*
X171562569Y-101511500D01*
X171337431Y-101511500D01*
X171192971Y-101535606D01*
X171115369Y-101548555D01*
X171115360Y-101548557D01*
X170902428Y-101621656D01*
X170902426Y-101621658D01*
X170704426Y-101728810D01*
X170704424Y-101728811D01*
X170526762Y-101867091D01*
X170374279Y-102032729D01*
X170285483Y-102168643D01*
X170231479Y-102214731D01*
X170161131Y-102224306D01*
X170096774Y-102194329D01*
X170074517Y-102168643D01*
X169985720Y-102032729D01*
X169833584Y-101867468D01*
X169833240Y-101867094D01*
X169833239Y-101867093D01*
X169833237Y-101867091D01*
X169751382Y-101803381D01*
X169655576Y-101728811D01*
X169457574Y-101621658D01*
X169457572Y-101621657D01*
X169457571Y-101621656D01*
X169244639Y-101548557D01*
X169244630Y-101548555D01*
X169167029Y-101535606D01*
X169022569Y-101511500D01*
X168797431Y-101511500D01*
X168652971Y-101535606D01*
X168575369Y-101548555D01*
X168575360Y-101548557D01*
X168362428Y-101621656D01*
X168362426Y-101621658D01*
X168164426Y-101728810D01*
X168164424Y-101728811D01*
X167986762Y-101867091D01*
X167834279Y-102032729D01*
X167745483Y-102168643D01*
X167691479Y-102214731D01*
X167621131Y-102224306D01*
X167556774Y-102194329D01*
X167534517Y-102168643D01*
X167445720Y-102032729D01*
X167293584Y-101867468D01*
X167293240Y-101867094D01*
X167293239Y-101867093D01*
X167293237Y-101867091D01*
X167211382Y-101803381D01*
X167115576Y-101728811D01*
X166917574Y-101621658D01*
X166917572Y-101621657D01*
X166917571Y-101621656D01*
X166704639Y-101548557D01*
X166704630Y-101548555D01*
X166627029Y-101535606D01*
X166482569Y-101511500D01*
X166257431Y-101511500D01*
X166112971Y-101535606D01*
X166035369Y-101548555D01*
X166035360Y-101548557D01*
X165822428Y-101621656D01*
X165822426Y-101621658D01*
X165624426Y-101728810D01*
X165624424Y-101728811D01*
X165446762Y-101867091D01*
X165294279Y-102032729D01*
X165205483Y-102168643D01*
X165151479Y-102214731D01*
X165081131Y-102224306D01*
X165016774Y-102194329D01*
X164994517Y-102168643D01*
X164905720Y-102032729D01*
X164753584Y-101867468D01*
X164753240Y-101867094D01*
X164753239Y-101867093D01*
X164753237Y-101867091D01*
X164671382Y-101803381D01*
X164575576Y-101728811D01*
X164377574Y-101621658D01*
X164377572Y-101621657D01*
X164377571Y-101621656D01*
X164164639Y-101548557D01*
X164164630Y-101548555D01*
X164087029Y-101535606D01*
X163942569Y-101511500D01*
X163717431Y-101511500D01*
X163572971Y-101535606D01*
X163495369Y-101548555D01*
X163495360Y-101548557D01*
X163282428Y-101621656D01*
X163282426Y-101621658D01*
X163084426Y-101728810D01*
X163084424Y-101728811D01*
X162906762Y-101867091D01*
X162754279Y-102032729D01*
X162665483Y-102168643D01*
X162611479Y-102214731D01*
X162541131Y-102224306D01*
X162476774Y-102194329D01*
X162454517Y-102168643D01*
X162365720Y-102032729D01*
X162213584Y-101867468D01*
X162213240Y-101867094D01*
X162213239Y-101867093D01*
X162213237Y-101867091D01*
X162131382Y-101803381D01*
X162035576Y-101728811D01*
X161837574Y-101621658D01*
X161837572Y-101621657D01*
X161837571Y-101621656D01*
X161624639Y-101548557D01*
X161624630Y-101548555D01*
X161547029Y-101535606D01*
X161402569Y-101511500D01*
X161177431Y-101511500D01*
X161032971Y-101535606D01*
X160955369Y-101548555D01*
X160955360Y-101548557D01*
X160742428Y-101621656D01*
X160742426Y-101621658D01*
X160544426Y-101728810D01*
X160544424Y-101728811D01*
X160366762Y-101867091D01*
X160214279Y-102032729D01*
X160125483Y-102168643D01*
X160071479Y-102214731D01*
X160001131Y-102224306D01*
X159936774Y-102194329D01*
X159914517Y-102168643D01*
X159825720Y-102032729D01*
X159673584Y-101867468D01*
X159673240Y-101867094D01*
X159673239Y-101867093D01*
X159673237Y-101867091D01*
X159591382Y-101803381D01*
X159495576Y-101728811D01*
X159297574Y-101621658D01*
X159297572Y-101621657D01*
X159297571Y-101621656D01*
X159084639Y-101548557D01*
X159084630Y-101548555D01*
X159007029Y-101535606D01*
X158862569Y-101511500D01*
X158637431Y-101511500D01*
X158492971Y-101535606D01*
X158415369Y-101548555D01*
X158415360Y-101548557D01*
X158202428Y-101621656D01*
X158202426Y-101621658D01*
X158004426Y-101728810D01*
X158004424Y-101728811D01*
X157826762Y-101867091D01*
X157674279Y-102032729D01*
X157585483Y-102168643D01*
X157531479Y-102214731D01*
X157461131Y-102224306D01*
X157396774Y-102194329D01*
X157374517Y-102168643D01*
X157285720Y-102032729D01*
X157133584Y-101867468D01*
X157133240Y-101867094D01*
X157133239Y-101867093D01*
X157133237Y-101867091D01*
X157051382Y-101803381D01*
X156955576Y-101728811D01*
X156757574Y-101621658D01*
X156757572Y-101621657D01*
X156757571Y-101621656D01*
X156544639Y-101548557D01*
X156544630Y-101548555D01*
X156467029Y-101535606D01*
X156322569Y-101511500D01*
X156097431Y-101511500D01*
X155952971Y-101535606D01*
X155875369Y-101548555D01*
X155875360Y-101548557D01*
X155662428Y-101621656D01*
X155662426Y-101621658D01*
X155464426Y-101728810D01*
X155464424Y-101728811D01*
X155286762Y-101867091D01*
X155134279Y-102032729D01*
X155045483Y-102168643D01*
X154991479Y-102214731D01*
X154921131Y-102224306D01*
X154856774Y-102194329D01*
X154834517Y-102168643D01*
X154745720Y-102032729D01*
X154593584Y-101867468D01*
X154593240Y-101867094D01*
X154593239Y-101867093D01*
X154593237Y-101867091D01*
X154511382Y-101803381D01*
X154415576Y-101728811D01*
X154217574Y-101621658D01*
X154217572Y-101621657D01*
X154217571Y-101621656D01*
X154004639Y-101548557D01*
X154004630Y-101548555D01*
X153927029Y-101535606D01*
X153782569Y-101511500D01*
X153557431Y-101511500D01*
X153412971Y-101535606D01*
X153335369Y-101548555D01*
X153335360Y-101548557D01*
X153122428Y-101621656D01*
X153122426Y-101621658D01*
X152924426Y-101728810D01*
X152924424Y-101728811D01*
X152746762Y-101867091D01*
X152594279Y-102032729D01*
X152505483Y-102168643D01*
X152451479Y-102214731D01*
X152381131Y-102224306D01*
X152316774Y-102194329D01*
X152294517Y-102168643D01*
X152205720Y-102032729D01*
X152053584Y-101867468D01*
X152053240Y-101867094D01*
X152053239Y-101867093D01*
X152053237Y-101867091D01*
X151971382Y-101803381D01*
X151875576Y-101728811D01*
X151677574Y-101621658D01*
X151677572Y-101621657D01*
X151677571Y-101621656D01*
X151464639Y-101548557D01*
X151464630Y-101548555D01*
X151387029Y-101535606D01*
X151242569Y-101511500D01*
X151017431Y-101511500D01*
X150872971Y-101535606D01*
X150795369Y-101548555D01*
X150795360Y-101548557D01*
X150582428Y-101621656D01*
X150582426Y-101621658D01*
X150384426Y-101728810D01*
X150384424Y-101728811D01*
X150206762Y-101867091D01*
X150054279Y-102032729D01*
X149965483Y-102168643D01*
X149911479Y-102214731D01*
X149841131Y-102224306D01*
X149776774Y-102194329D01*
X149754517Y-102168643D01*
X149665720Y-102032729D01*
X149513584Y-101867468D01*
X149513240Y-101867094D01*
X149513239Y-101867093D01*
X149513237Y-101867091D01*
X149431382Y-101803381D01*
X149335576Y-101728811D01*
X149137574Y-101621658D01*
X149137572Y-101621657D01*
X149137571Y-101621656D01*
X148924639Y-101548557D01*
X148924630Y-101548555D01*
X148847029Y-101535606D01*
X148702569Y-101511500D01*
X148477431Y-101511500D01*
X148332971Y-101535606D01*
X148255369Y-101548555D01*
X148255360Y-101548557D01*
X148042428Y-101621656D01*
X148042426Y-101621658D01*
X147844426Y-101728810D01*
X147844424Y-101728811D01*
X147666762Y-101867091D01*
X147514279Y-102032729D01*
X147425483Y-102168643D01*
X147371479Y-102214731D01*
X147301131Y-102224306D01*
X147236774Y-102194329D01*
X147214517Y-102168643D01*
X147125720Y-102032729D01*
X146973584Y-101867468D01*
X146973240Y-101867094D01*
X146973239Y-101867093D01*
X146973237Y-101867091D01*
X146891382Y-101803381D01*
X146795576Y-101728811D01*
X146597574Y-101621658D01*
X146597572Y-101621657D01*
X146597571Y-101621656D01*
X146384639Y-101548557D01*
X146384630Y-101548555D01*
X146307029Y-101535606D01*
X146162569Y-101511500D01*
X145937431Y-101511500D01*
X145792971Y-101535606D01*
X145715369Y-101548555D01*
X145715360Y-101548557D01*
X145502428Y-101621656D01*
X145502426Y-101621658D01*
X145304426Y-101728810D01*
X145304424Y-101728811D01*
X145126762Y-101867091D01*
X144974279Y-102032729D01*
X144885483Y-102168643D01*
X144831479Y-102214731D01*
X144761131Y-102224306D01*
X144696774Y-102194329D01*
X144674517Y-102168643D01*
X144585720Y-102032729D01*
X144433584Y-101867468D01*
X144433240Y-101867094D01*
X144433239Y-101867093D01*
X144433237Y-101867091D01*
X144351382Y-101803381D01*
X144255576Y-101728811D01*
X144057574Y-101621658D01*
X144057572Y-101621657D01*
X144057571Y-101621656D01*
X143844639Y-101548557D01*
X143844630Y-101548555D01*
X143767029Y-101535606D01*
X143622569Y-101511500D01*
X143397431Y-101511500D01*
X143252971Y-101535606D01*
X143175369Y-101548555D01*
X143175360Y-101548557D01*
X142962428Y-101621656D01*
X142962426Y-101621658D01*
X142764426Y-101728810D01*
X142764424Y-101728811D01*
X142586762Y-101867091D01*
X142434279Y-102032729D01*
X142345183Y-102169101D01*
X142291179Y-102215189D01*
X142220831Y-102224764D01*
X142156474Y-102194786D01*
X142134217Y-102169100D01*
X142045327Y-102033044D01*
X141892902Y-101867465D01*
X141715301Y-101729232D01*
X141715300Y-101729231D01*
X141517371Y-101622117D01*
X141517369Y-101622116D01*
X141304512Y-101549043D01*
X141304501Y-101549040D01*
X141224000Y-101535606D01*
X141224000Y-102255966D01*
X141203998Y-102324087D01*
X141150342Y-102370580D01*
X141080069Y-102380683D01*
X141080068Y-102380683D01*
X141005768Y-102370000D01*
X141005763Y-102370000D01*
X140934237Y-102370000D01*
X140934231Y-102370000D01*
X140859932Y-102380683D01*
X140789658Y-102370580D01*
X140736002Y-102324087D01*
X140716000Y-102255966D01*
X140716000Y-101535607D01*
X140715999Y-101535606D01*
X140635498Y-101549040D01*
X140635487Y-101549043D01*
X140422630Y-101622116D01*
X140422628Y-101622117D01*
X140224699Y-101729231D01*
X140224698Y-101729232D01*
X140047093Y-101867468D01*
X139918701Y-102006940D01*
X139857848Y-102043512D01*
X139786884Y-102041377D01*
X139728338Y-102001216D01*
X139700800Y-101935778D01*
X139700000Y-101921603D01*
X139700000Y-101675121D01*
X139720002Y-101607000D01*
X139725119Y-101599628D01*
X139804489Y-101493604D01*
X139855589Y-101356601D01*
X139862100Y-101296038D01*
X139862100Y-100548762D01*
X139862099Y-100548750D01*
X139855590Y-100488203D01*
X139855588Y-100488195D01*
X139817517Y-100386125D01*
X139804489Y-100351196D01*
X139725131Y-100245186D01*
X139700321Y-100178668D01*
X139700000Y-100169679D01*
X139700000Y-99525121D01*
X139720002Y-99457000D01*
X139725119Y-99449628D01*
X139804489Y-99343604D01*
X139855589Y-99206601D01*
X139855792Y-99204719D01*
X139862099Y-99146049D01*
X139862100Y-99146032D01*
X139862100Y-98398767D01*
X139862099Y-98398750D01*
X139855590Y-98338203D01*
X139853777Y-98330532D01*
X139855858Y-98330040D01*
X139851584Y-98270206D01*
X139885614Y-98207897D01*
X139947929Y-98173877D01*
X139974702Y-98171000D01*
X144837846Y-98171000D01*
X144905967Y-98191002D01*
X144945086Y-98230852D01*
X144974568Y-98278649D01*
X144974575Y-98278658D01*
X145099941Y-98404024D01*
X145099947Y-98404029D01*
X145099948Y-98404030D01*
X145250862Y-98497115D01*
X145419174Y-98552887D01*
X145523055Y-98563500D01*
X146449144Y-98563499D01*
X146553026Y-98552887D01*
X146721338Y-98497115D01*
X146872252Y-98404030D01*
X146997630Y-98278652D01*
X147018598Y-98244658D01*
X147027114Y-98230852D01*
X147079900Y-98183374D01*
X147134354Y-98171000D01*
X147962846Y-98171000D01*
X148030967Y-98191002D01*
X148070086Y-98230852D01*
X148099568Y-98278649D01*
X148099575Y-98278658D01*
X148224941Y-98404024D01*
X148224947Y-98404029D01*
X148224948Y-98404030D01*
X148375862Y-98497115D01*
X148544174Y-98552887D01*
X148648055Y-98563500D01*
X149574144Y-98563499D01*
X149678026Y-98552887D01*
X149846338Y-98497115D01*
X149997252Y-98404030D01*
X150122630Y-98278652D01*
X150143598Y-98244658D01*
X150152114Y-98230852D01*
X150204900Y-98183374D01*
X150259354Y-98171000D01*
X158484025Y-98171000D01*
X158552146Y-98191002D01*
X158576501Y-98212991D01*
X158576877Y-98212616D01*
X158703380Y-98339119D01*
X158703382Y-98339120D01*
X158848866Y-98430534D01*
X158848867Y-98430534D01*
X158848870Y-98430536D01*
X159011054Y-98487287D01*
X159011053Y-98487287D01*
X159028343Y-98489234D01*
X159181800Y-98506525D01*
X159352546Y-98487287D01*
X159514730Y-98430536D01*
X159660219Y-98339119D01*
X159720689Y-98278649D01*
X159786723Y-98212616D01*
X159787811Y-98213704D01*
X159839177Y-98177652D01*
X159879575Y-98171000D01*
X162656900Y-98171000D01*
X162725021Y-98191002D01*
X162771514Y-98244658D01*
X162782900Y-98296999D01*
X162782900Y-98471221D01*
X162788974Y-98538073D01*
X162788974Y-98538075D01*
X162788975Y-98538078D01*
X162836911Y-98691909D01*
X162881709Y-98766013D01*
X162920268Y-98829798D01*
X162920272Y-98829803D01*
X163034196Y-98943727D01*
X163034201Y-98943731D01*
X163034202Y-98943732D01*
X163172091Y-99027089D01*
X163325922Y-99075025D01*
X163392775Y-99081100D01*
X163416384Y-99081099D01*
X163484504Y-99101098D01*
X163530999Y-99154752D01*
X163535313Y-99165475D01*
X163546691Y-99197991D01*
X163550309Y-99268895D01*
X163546690Y-99281220D01*
X163488312Y-99448055D01*
X163469075Y-99618800D01*
X163488312Y-99789544D01*
X163545064Y-99951730D01*
X163545065Y-99951733D01*
X163636479Y-100097217D01*
X163636480Y-100097219D01*
X163757980Y-100218719D01*
X163757982Y-100218720D01*
X163903466Y-100310134D01*
X163903467Y-100310134D01*
X163903470Y-100310136D01*
X164065654Y-100366887D01*
X164065653Y-100366887D01*
X164082943Y-100368834D01*
X164236400Y-100386125D01*
X164407146Y-100366887D01*
X164569330Y-100310136D01*
X164584012Y-100300910D01*
X164708305Y-100222813D01*
X164775341Y-100203500D01*
X166048147Y-100203500D01*
X166056379Y-100204040D01*
X166090599Y-100208545D01*
X166090600Y-100208545D01*
X166128919Y-100203500D01*
X166128921Y-100203500D01*
X166243237Y-100188450D01*
X166344486Y-100146511D01*
X166385473Y-100129534D01*
X166438428Y-100088900D01*
X166507613Y-100035813D01*
X166528636Y-100008413D01*
X166534056Y-100002232D01*
X167743837Y-98792452D01*
X167750019Y-98787031D01*
X167777413Y-98766013D01*
X167815916Y-98715834D01*
X167825380Y-98703501D01*
X177376804Y-98703501D01*
X177378523Y-98725356D01*
X177378523Y-98725357D01*
X177424730Y-98884402D01*
X177509036Y-99026954D01*
X177509039Y-99026958D01*
X177626142Y-99144061D01*
X177626146Y-99144064D01*
X177768697Y-99228369D01*
X177924600Y-99273663D01*
X177924600Y-98703501D01*
X177376804Y-98703501D01*
X167825380Y-98703501D01*
X167871134Y-98643873D01*
X167911404Y-98546652D01*
X167930050Y-98501637D01*
X167945100Y-98387321D01*
X167947563Y-98368614D01*
X167947563Y-98368605D01*
X167950145Y-98349000D01*
X167950145Y-98348999D01*
X167945640Y-98314777D01*
X167945100Y-98306546D01*
X167945100Y-98297000D01*
X167965102Y-98228879D01*
X168018758Y-98182386D01*
X168071100Y-98171000D01*
X176885600Y-98171000D01*
X176885600Y-97433501D01*
X177376804Y-97433501D01*
X177378523Y-97455356D01*
X177378523Y-97455357D01*
X177424730Y-97614402D01*
X177505137Y-97750361D01*
X177522597Y-97819178D01*
X177505137Y-97878641D01*
X177424730Y-98014599D01*
X177378523Y-98173644D01*
X177378523Y-98173645D01*
X177376804Y-98195501D01*
X177924600Y-98195501D01*
X177924600Y-97433501D01*
X177376804Y-97433501D01*
X176885600Y-97433501D01*
X176885600Y-95619080D01*
X176905602Y-95550959D01*
X176959258Y-95504466D01*
X177029532Y-95494362D01*
X177094112Y-95523856D01*
X177100676Y-95529966D01*
X177781174Y-96210465D01*
X177815199Y-96272776D01*
X177810134Y-96343592D01*
X177767587Y-96400427D01*
X177756218Y-96408012D01*
X177626146Y-96484937D01*
X177626142Y-96484940D01*
X177509039Y-96602043D01*
X177509036Y-96602047D01*
X177424730Y-96744599D01*
X177378523Y-96903644D01*
X177378523Y-96903645D01*
X177376804Y-96925501D01*
X178219100Y-96925501D01*
X178287221Y-96945503D01*
X178333714Y-96999159D01*
X178345100Y-97051501D01*
X178345101Y-97418249D01*
X178348026Y-97455436D01*
X178394269Y-97614605D01*
X178415053Y-97649748D01*
X178432600Y-97713887D01*
X178432600Y-97915115D01*
X178415054Y-97979253D01*
X178394268Y-98014399D01*
X178348028Y-98173558D01*
X178348026Y-98173570D01*
X178345100Y-98210751D01*
X178345101Y-98688249D01*
X178348026Y-98725436D01*
X178394269Y-98884605D01*
X178415053Y-98919748D01*
X178432600Y-98983887D01*
X178432600Y-99273663D01*
X178588499Y-99228371D01*
X178598967Y-99222180D01*
X178667783Y-99204719D01*
X178727245Y-99222177D01*
X178738500Y-99228833D01*
X178897663Y-99275074D01*
X178934853Y-99278001D01*
X179362346Y-99278000D01*
X179362348Y-99278000D01*
X179380941Y-99276537D01*
X179399537Y-99275074D01*
X179558700Y-99228833D01*
X179558702Y-99228831D01*
X179558704Y-99228831D01*
X179701361Y-99144464D01*
X179701360Y-99144464D01*
X179701363Y-99144463D01*
X179774721Y-99071104D01*
X179837031Y-99037081D01*
X179863815Y-99034201D01*
X179903727Y-99034201D01*
X179938879Y-99039203D01*
X180064063Y-99075573D01*
X180101253Y-99078500D01*
X180578746Y-99078499D01*
X180578748Y-99078499D01*
X180597341Y-99077036D01*
X180615937Y-99075573D01*
X180775100Y-99029332D01*
X180775102Y-99029330D01*
X180775104Y-99029330D01*
X180917761Y-98944963D01*
X180917760Y-98944963D01*
X180917763Y-98944962D01*
X181034962Y-98827763D01*
X181093294Y-98729129D01*
X181119330Y-98685104D01*
X181119330Y-98685102D01*
X181119332Y-98685100D01*
X181165573Y-98525937D01*
X181167486Y-98501637D01*
X181168500Y-98488751D01*
X181168499Y-98061252D01*
X181165573Y-98024064D01*
X181155357Y-97988900D01*
X181119332Y-97864900D01*
X181112967Y-97854138D01*
X181095508Y-97785323D01*
X181112968Y-97725859D01*
X181119332Y-97715100D01*
X181165573Y-97555937D01*
X181168500Y-97518747D01*
X181168499Y-97091254D01*
X181165573Y-97054063D01*
X181119332Y-96894900D01*
X181119330Y-96894898D01*
X181119330Y-96894895D01*
X181034963Y-96752238D01*
X181034957Y-96752231D01*
X180917768Y-96635042D01*
X180917761Y-96635036D01*
X180775104Y-96550669D01*
X180615942Y-96504428D01*
X180615938Y-96504427D01*
X180615937Y-96504427D01*
X180615935Y-96504426D01*
X180615930Y-96504426D01*
X180578749Y-96501500D01*
X180578747Y-96501500D01*
X180340736Y-96501500D01*
X180101252Y-96501501D01*
X180064064Y-96504426D01*
X179904899Y-96550668D01*
X179902675Y-96551984D01*
X179900703Y-96552484D01*
X179897623Y-96553817D01*
X179897407Y-96553320D01*
X179833858Y-96569440D01*
X179766527Y-96546920D01*
X179749451Y-96532627D01*
X179701363Y-96484539D01*
X179701362Y-96484538D01*
X179685313Y-96475047D01*
X179649489Y-96443297D01*
X179589142Y-96364651D01*
X179565613Y-96333987D01*
X179565613Y-96333986D01*
X179538219Y-96312967D01*
X179532029Y-96307538D01*
X177200715Y-93976225D01*
X177200688Y-93976196D01*
X176922505Y-93698013D01*
X176888479Y-93635701D01*
X176885600Y-93608918D01*
X176885600Y-93572701D01*
X177376804Y-93572701D01*
X177378523Y-93594556D01*
X177378523Y-93594557D01*
X177424730Y-93753602D01*
X177509036Y-93896154D01*
X177509039Y-93896158D01*
X177626142Y-94013261D01*
X177626146Y-94013264D01*
X177768697Y-94097569D01*
X177924600Y-94142863D01*
X177924600Y-93572701D01*
X177376804Y-93572701D01*
X176885600Y-93572701D01*
X176885600Y-92353501D01*
X177376804Y-92353501D01*
X177378523Y-92375356D01*
X177378523Y-92375357D01*
X177424731Y-92534404D01*
X177490115Y-92644962D01*
X177507575Y-92713778D01*
X177490115Y-92773240D01*
X177424731Y-92883797D01*
X177378523Y-93042844D01*
X177378523Y-93042845D01*
X177376804Y-93064701D01*
X177924600Y-93064701D01*
X177924600Y-92353501D01*
X177376804Y-92353501D01*
X176885600Y-92353501D01*
X176885600Y-91287100D01*
X176905602Y-91218979D01*
X176959258Y-91172486D01*
X177011600Y-91161100D01*
X177577875Y-91161100D01*
X177645996Y-91181102D01*
X177692489Y-91234758D01*
X177702593Y-91305032D01*
X177673099Y-91369612D01*
X177642014Y-91395554D01*
X177626143Y-91404939D01*
X177509039Y-91522043D01*
X177509036Y-91522047D01*
X177424730Y-91664599D01*
X177378523Y-91823644D01*
X177378523Y-91823645D01*
X177376804Y-91845501D01*
X178219100Y-91845501D01*
X178287221Y-91865503D01*
X178333714Y-91919159D01*
X178345100Y-91971501D01*
X178345101Y-92338249D01*
X178348026Y-92375436D01*
X178394269Y-92534605D01*
X178415053Y-92569748D01*
X178432600Y-92633887D01*
X178432600Y-92784315D01*
X178415054Y-92848453D01*
X178394268Y-92883599D01*
X178348028Y-93042758D01*
X178348026Y-93042770D01*
X178345100Y-93079951D01*
X178345101Y-93557449D01*
X178348026Y-93594636D01*
X178394269Y-93753805D01*
X178415053Y-93788948D01*
X178432600Y-93853087D01*
X178432600Y-94142863D01*
X178588499Y-94097571D01*
X178598967Y-94091380D01*
X178667783Y-94073919D01*
X178727245Y-94091377D01*
X178738500Y-94098033D01*
X178897663Y-94144274D01*
X178934853Y-94147201D01*
X179362346Y-94147200D01*
X179362348Y-94147200D01*
X179380941Y-94145737D01*
X179399537Y-94144274D01*
X179558700Y-94098033D01*
X179558702Y-94098031D01*
X179558704Y-94098031D01*
X179653808Y-94041786D01*
X179701363Y-94013663D01*
X179748318Y-93966707D01*
X179810625Y-93932684D01*
X179881441Y-93937747D01*
X179901547Y-93947349D01*
X179904900Y-93949332D01*
X180064063Y-93995573D01*
X180101253Y-93998500D01*
X180578746Y-93998499D01*
X180578748Y-93998499D01*
X180597341Y-93997036D01*
X180615937Y-93995573D01*
X180775100Y-93949332D01*
X180775102Y-93949330D01*
X180775104Y-93949330D01*
X180917761Y-93864963D01*
X180917760Y-93864963D01*
X180917763Y-93864962D01*
X181034962Y-93747763D01*
X181078703Y-93673800D01*
X181119330Y-93605104D01*
X181119330Y-93605102D01*
X181119332Y-93605100D01*
X181165573Y-93445937D01*
X181168500Y-93408747D01*
X181168499Y-92981254D01*
X181165573Y-92944063D01*
X181119332Y-92784900D01*
X181112969Y-92774142D01*
X181095508Y-92705327D01*
X181112970Y-92645857D01*
X181119332Y-92635100D01*
X181165573Y-92475937D01*
X181168182Y-92442786D01*
X181168500Y-92438751D01*
X181168499Y-92011252D01*
X181165573Y-91974064D01*
X181165573Y-91974063D01*
X181119332Y-91814900D01*
X181119330Y-91814898D01*
X181119330Y-91814895D01*
X181034963Y-91672238D01*
X181034957Y-91672231D01*
X180917768Y-91555042D01*
X180917761Y-91555036D01*
X180775104Y-91470669D01*
X180615942Y-91424428D01*
X180615938Y-91424427D01*
X180615937Y-91424427D01*
X180615935Y-91424426D01*
X180615930Y-91424426D01*
X180578749Y-91421500D01*
X180578747Y-91421500D01*
X180340736Y-91421500D01*
X180101252Y-91421501D01*
X180064064Y-91424426D01*
X179904899Y-91470668D01*
X179902675Y-91471984D01*
X179900703Y-91472484D01*
X179897623Y-91473817D01*
X179897407Y-91473320D01*
X179833858Y-91489440D01*
X179766527Y-91466920D01*
X179749451Y-91452627D01*
X179701363Y-91404539D01*
X179701361Y-91404537D01*
X179551879Y-91316134D01*
X179552549Y-91315000D01*
X179523649Y-91295359D01*
X178976954Y-90748664D01*
X178421261Y-90192971D01*
X178415834Y-90186783D01*
X178394813Y-90159387D01*
X178305071Y-90090526D01*
X178304825Y-90090337D01*
X178272671Y-90065664D01*
X178207457Y-90038653D01*
X178130437Y-90006750D01*
X178130436Y-90006749D01*
X178042717Y-89995201D01*
X178016121Y-89991700D01*
X178016119Y-89991700D01*
X177977800Y-89986655D01*
X177977799Y-89986655D01*
X177943578Y-89991160D01*
X177935346Y-89991700D01*
X177011600Y-89991700D01*
X176943479Y-89971698D01*
X176896986Y-89918042D01*
X176885600Y-89865700D01*
X176885600Y-88656243D01*
X176903147Y-88592103D01*
X176927869Y-88550300D01*
X176944342Y-88493600D01*
X177376804Y-88493600D01*
X177378523Y-88515455D01*
X177378523Y-88515456D01*
X177424730Y-88674501D01*
X177509036Y-88817053D01*
X177509039Y-88817057D01*
X177626142Y-88934160D01*
X177626146Y-88934163D01*
X177768697Y-89018468D01*
X177924600Y-89063762D01*
X177924600Y-88493600D01*
X177376804Y-88493600D01*
X176944342Y-88493600D01*
X176973163Y-88394400D01*
X176885600Y-88394400D01*
X176885600Y-87886400D01*
X176973163Y-87886400D01*
X176927869Y-87730499D01*
X176921678Y-87720031D01*
X176904218Y-87651215D01*
X176921678Y-87591751D01*
X176928332Y-87580500D01*
X176974573Y-87421337D01*
X176977500Y-87384147D01*
X176977500Y-87325200D01*
X177376804Y-87325200D01*
X177378523Y-87347055D01*
X177378523Y-87347056D01*
X177424730Y-87506100D01*
X177475094Y-87591261D01*
X177492553Y-87660077D01*
X177475094Y-87719539D01*
X177424730Y-87804699D01*
X177378523Y-87963743D01*
X177378523Y-87963744D01*
X177376804Y-87985600D01*
X177924600Y-87985600D01*
X177924600Y-87325200D01*
X177376804Y-87325200D01*
X176977500Y-87325200D01*
X176977499Y-86956654D01*
X176974573Y-86919463D01*
X176928332Y-86760300D01*
X176903145Y-86717712D01*
X176885600Y-86653575D01*
X176885600Y-86461099D01*
X176905602Y-86392979D01*
X176959258Y-86346486D01*
X177011600Y-86335100D01*
X177381958Y-86335100D01*
X177450079Y-86355102D01*
X177496572Y-86408758D01*
X177506676Y-86479032D01*
X177490411Y-86525240D01*
X177424730Y-86636298D01*
X177378523Y-86795343D01*
X177378523Y-86795344D01*
X177376804Y-86817200D01*
X178015520Y-86817200D01*
X178083641Y-86837202D01*
X178104615Y-86854105D01*
X178308195Y-87057685D01*
X178342221Y-87119997D01*
X178345100Y-87146779D01*
X178345101Y-87309948D01*
X178348026Y-87347135D01*
X178394269Y-87506304D01*
X178415053Y-87541447D01*
X178432600Y-87605586D01*
X178432600Y-87705214D01*
X178415054Y-87769352D01*
X178394268Y-87804498D01*
X178348028Y-87963657D01*
X178348026Y-87963669D01*
X178345100Y-88000850D01*
X178345101Y-88478348D01*
X178348026Y-88515535D01*
X178394269Y-88674704D01*
X178415053Y-88709847D01*
X178432600Y-88773986D01*
X178432600Y-89063762D01*
X178588499Y-89018470D01*
X178598967Y-89012279D01*
X178667783Y-88994818D01*
X178727245Y-89012276D01*
X178738500Y-89018932D01*
X178897663Y-89065173D01*
X178934853Y-89068100D01*
X179362346Y-89068099D01*
X179362348Y-89068099D01*
X179380941Y-89066636D01*
X179399537Y-89065173D01*
X179558700Y-89018932D01*
X179558702Y-89018930D01*
X179558704Y-89018930D01*
X179701361Y-88934563D01*
X179701360Y-88934563D01*
X179701363Y-88934562D01*
X179748883Y-88887041D01*
X179811190Y-88853018D01*
X179882006Y-88858082D01*
X179902117Y-88867686D01*
X179904896Y-88869330D01*
X179904900Y-88869332D01*
X180064063Y-88915573D01*
X180101253Y-88918500D01*
X180578746Y-88918499D01*
X180578748Y-88918499D01*
X180597341Y-88917036D01*
X180615937Y-88915573D01*
X180775100Y-88869332D01*
X180775102Y-88869330D01*
X180775104Y-88869330D01*
X180917761Y-88784963D01*
X180917760Y-88784963D01*
X180917763Y-88784962D01*
X181034962Y-88667763D01*
X181090230Y-88574309D01*
X181119330Y-88525104D01*
X181119330Y-88525102D01*
X181119332Y-88525100D01*
X181165573Y-88365937D01*
X181168500Y-88328747D01*
X181168499Y-87901254D01*
X181165573Y-87864063D01*
X181119332Y-87704900D01*
X181112969Y-87694142D01*
X181095508Y-87625327D01*
X181112970Y-87565857D01*
X181119332Y-87555100D01*
X181165573Y-87395937D01*
X181168500Y-87358747D01*
X181168499Y-86931254D01*
X181167571Y-86919464D01*
X181165573Y-86894064D01*
X181143242Y-86817200D01*
X181119332Y-86734900D01*
X181119330Y-86734898D01*
X181119330Y-86734895D01*
X181034963Y-86592238D01*
X181034957Y-86592231D01*
X180917768Y-86475042D01*
X180917761Y-86475036D01*
X180775104Y-86390669D01*
X180615942Y-86344428D01*
X180615938Y-86344427D01*
X180615937Y-86344427D01*
X180615935Y-86344426D01*
X180615930Y-86344426D01*
X180578749Y-86341500D01*
X180578747Y-86341500D01*
X180339712Y-86341500D01*
X180101252Y-86341501D01*
X180064062Y-86344427D01*
X179904903Y-86390666D01*
X179870191Y-86411194D01*
X179801374Y-86428652D01*
X179734043Y-86406134D01*
X179716962Y-86391837D01*
X179701363Y-86376238D01*
X179701362Y-86376237D01*
X179701361Y-86376236D01*
X179558704Y-86291869D01*
X179399542Y-86245628D01*
X179399538Y-86245627D01*
X179399537Y-86245627D01*
X179399535Y-86245626D01*
X179399530Y-86245626D01*
X179362349Y-86242700D01*
X179362347Y-86242700D01*
X179199180Y-86242700D01*
X179131059Y-86222698D01*
X179110085Y-86205795D01*
X178705490Y-85801200D01*
X178271261Y-85366971D01*
X178265834Y-85360783D01*
X178244813Y-85333387D01*
X178244808Y-85333383D01*
X178241916Y-85330490D01*
X178240256Y-85327450D01*
X178239785Y-85326836D01*
X178239880Y-85326762D01*
X178207895Y-85268176D01*
X178212964Y-85197361D01*
X178255514Y-85140527D01*
X178322035Y-85115721D01*
X178331017Y-85115400D01*
X182601100Y-85115400D01*
X182669221Y-85135402D01*
G37*
%TD.AperFunction*%
%TD*%
M02*
